<svg width="20" height="20" viewBox="0 0 20 20" fill="none" xmlns="http://www.w3.org/2000/svg">
<path fill-rule="evenodd" clip-rule="evenodd" d="M17.6018 2.02434C17.2229 2.09174 16.6856 2.26805 15.8255 2.55477L6.68961 5.60006C5.03571 6.15136 3.86734 6.54203 3.06355 6.89926C2.19546 7.28508 2.07522 7.50294 2.06768 7.52238C1.97744 7.75503 1.97744 8.01301 2.06768 8.24566C2.07522 8.2651 2.19546 8.48296 3.06355 8.86878C3.86734 9.22601 5.03572 9.61668 6.68961 10.168C6.72723 10.1805 6.76454 10.1929 6.80157 10.2052C7.34363 10.3851 7.82205 10.5439 8.21946 10.8448C8.43882 11.0109 8.63429 11.2063 8.80037 11.4257C9.10126 11.8231 9.26005 12.3015 9.43996 12.8436C9.45225 12.8806 9.46463 12.9179 9.47717 12.9555C10.0285 14.6094 10.4191 15.7778 10.7764 16.5816C11.1622 17.4497 11.38 17.5699 11.3995 17.5775C11.6321 17.6677 11.8901 17.6677 12.1228 17.5775C12.1422 17.5699 12.3601 17.4497 12.7459 16.5816C13.1031 15.7778 13.4938 14.6094 14.0451 12.9555L17.0904 3.81968C17.3771 2.95951 17.5534 2.42228 17.6208 2.04338C17.6222 2.03549 17.6235 2.02781 17.6248 2.02035C17.6173 2.02161 17.6097 2.02293 17.6018 2.02434ZM17.8607 2.00122C17.8605 2.00141 17.8572 2.00114 17.8515 1.99987C17.8581 2.00041 17.861 2.00104 17.8607 2.00122ZM17.6453 1.79364C17.644 1.7879 17.6437 1.78461 17.6439 1.78441C17.6441 1.7842 17.6447 1.78706 17.6453 1.79364ZM17.2515 0.0552499C17.8025 -0.0427675 18.557 -0.0719559 19.1371 0.508101C19.7171 1.08816 19.6879 1.84267 19.5899 2.39366C19.4936 2.9351 19.2671 3.61423 19.0116 4.38054L18.9877 4.45214L15.9425 13.588L15.9236 13.6445C15.3954 15.2293 14.9749 16.4907 14.5735 17.3939C14.1959 18.2435 13.7033 19.1096 12.846 19.4421C12.1481 19.7128 11.3742 19.7128 10.6762 19.4421C9.81894 19.1096 9.32633 18.2435 8.94875 17.3939C8.54734 16.4907 8.12689 15.2293 7.59861 13.6444L7.5798 13.588C7.34036 12.8697 7.28185 12.7333 7.20584 12.633C7.15048 12.5598 7.08532 12.4947 7.0122 12.4393C6.9118 12.3633 6.77549 12.3048 6.05716 12.0654L6.00074 12.0465C4.41584 11.5183 3.15446 11.0978 2.25128 10.6964C1.4017 10.3188 0.535575 9.82621 0.203045 8.96894C-0.0676816 8.27099 -0.0676816 7.49705 0.203045 6.7991C0.535574 5.94183 1.4017 5.44922 2.25128 5.07164C3.15445 4.67023 4.41583 4.24979 6.00071 3.72151L6.05715 3.70269L15.193 0.657405L15.2646 0.633525C16.0309 0.378013 16.7101 0.151567 17.2515 0.0552499Z" fill="#6A12CC"/>
</svg>
