<svg width="20" height="20" viewBox="0 0 20 20" fill="none" xmlns="http://www.w3.org/2000/svg">
<path fill-rule="evenodd" clip-rule="evenodd" d="M2 2.45557C2 2.18465 2.22349 1.96479 2.5 1.96479H13.3368C13.1208 2.41141 13 2.91104 13 3.43838V17.0478L11.4295 15.7914C10.5555 15.0923 9.26635 15.2403 8.5801 16.1187L7.45934 17.5532L6.19482 16.0955C5.43249 15.2168 4.06686 15.1701 3.24423 15.9947L2 17.242V10.0485V2.45557ZM16 0V0.0348205C16.1633 0.0118732 16.3302 0 16.5 0C18.433 0 20 1.53942 20 3.43838V9.73641C20 10.3273 19.5124 10.8063 18.9109 10.8063H15V18.9259C15 19.8291 13.9326 20.3276 13.2196 19.7572L13.2196 19.7572L10.1666 17.315L8.66957 19.2311C8.08839 19.975 6.95716 20.0034 6.33802 19.2897L4.67263 17.37L2.5713 19.4764L1.86907 18.8003L2.5713 19.4764C1.63082 20.4191 0 19.7649 0 18.4449V10.0485V2.45557C0 1.09881 1.11966 0 2.5 0H16ZM18 3.43838V8.84156H15V3.43838C15 2.62454 15.6716 1.96479 16.5 1.96479C17.3284 1.96479 18 2.62454 18 3.43838ZM8.49976 4.91198C8.49976 4.36942 8.05204 3.92958 7.49976 3.92958C6.94747 3.92958 6.49976 4.36942 6.49976 4.91198V5.26202C5.36915 5.42076 4.5 6.37593 4.5 7.53052C4.5 8.79617 5.5444 9.82218 6.83273 9.82218H8.1691C8.35286 9.82218 8.50183 9.96853 8.50183 10.1491C8.50183 10.3296 8.35286 10.4759 8.1691 10.4759H5.83349C5.2812 10.4759 4.83349 10.9158 4.83349 11.4583C4.83349 12.0009 5.2812 12.4407 5.83349 12.4407H6.49976V12.7676C6.49976 13.3102 6.94747 13.75 7.49976 13.75C8.05204 13.75 8.49976 13.3102 8.49976 12.7676V12.4179C9.63149 12.2601 10.5018 11.3044 10.5018 10.1491C10.5018 8.8834 9.45743 7.85739 8.1691 7.85739H6.83273C6.64897 7.85739 6.5 7.71104 6.5 7.53052C6.5 7.34999 6.64897 7.20364 6.83273 7.20364H9.16834C9.72063 7.20364 10.1683 6.76381 10.1683 6.22125C10.1683 5.67869 9.72063 5.23885 9.16834 5.23885H8.49976V4.91198Z" fill="black"/>
</svg>
