<svg width="20" height="21" viewBox="0 0 20 21" fill="none" xmlns="http://www.w3.org/2000/svg">
<path fill-rule="evenodd" clip-rule="evenodd" d="M9.99689 0C6.39375 0 3.36652 2.70861 2.96744 6.28958L2.69603 8.72507C2.676 8.90479 2.66755 8.98007 2.65775 9.05341C2.53776 9.95135 2.24462 10.8175 1.79458 11.6037C1.75782 11.6679 1.71881 11.7329 1.62556 11.8878L0.998106 12.9304L0.968627 12.9794L0.96862 12.9794C0.674807 13.4676 0.409027 13.9091 0.241056 14.2832C0.0687096 14.6671 -0.101957 15.1902 0.0742588 15.7601C0.15913 16.0346 0.302144 16.2876 0.493564 16.5018C0.891003 16.9467 1.42723 17.0702 1.84499 17.1204C2.25213 17.1694 2.76748 17.1694 3.33718 17.1693H3.33722L3.39443 17.1693H16.5993L16.6566 17.1693H16.6566C17.2263 17.1694 17.7417 17.1694 18.1488 17.1204C18.5666 17.0702 19.1028 16.9467 19.5002 16.5018C19.6916 16.2876 19.8347 16.0346 19.9195 15.7601C20.0957 15.1902 19.9251 14.6671 19.7527 14.2832C19.5848 13.9091 19.319 13.4675 19.0251 12.9794L18.9957 12.9304L18.3682 11.8878C18.275 11.7329 18.236 11.6679 18.1992 11.6037C17.7492 10.8175 17.456 9.95135 17.336 9.05341C17.3262 8.98007 17.3178 8.90479 17.2978 8.72507L17.2188 8.01684C16.6765 8.27389 16.0703 8.41759 15.4312 8.41759C15.3707 8.41759 15.3105 8.4163 15.2507 8.41375L15.3101 8.94658L15.3114 8.95888L15.3114 8.95902C15.3297 9.12294 15.3406 9.22079 15.3537 9.31831C15.5079 10.4728 15.8848 11.5864 16.4634 12.5972C16.5124 12.6827 16.5632 12.7672 16.6484 12.9087L16.6484 12.9087L16.6546 12.919L17.282 13.9617C17.6149 14.5148 17.8156 14.8518 17.9282 15.1024L17.9407 15.1308L17.9099 15.1348C17.6371 15.1676 17.2449 15.1693 16.5993 15.1693H3.39443C2.74887 15.1693 2.35667 15.1676 2.08388 15.1348L2.05309 15.1308L2.06559 15.1024C2.17814 14.8518 2.37887 14.5148 2.71174 13.9617L3.33919 12.919L3.34544 12.9087C3.43061 12.7671 3.48142 12.6827 3.53034 12.5972C4.10896 11.5864 4.48586 10.4728 4.64013 9.31831C4.65317 9.22072 4.66409 9.1228 4.68238 8.95866L4.68372 8.94658L4.95514 6.5111C5.24137 3.94271 7.4126 2 9.99689 2C10.6068 2 11.1936 2.10819 11.7381 2.30726C12.0735 1.67331 12.5677 1.13664 13.1673 0.749424C12.2105 0.26896 11.1323 0 9.99689 0ZM15.0441 2.11777C14.3321 2.24538 13.7406 2.71863 13.4504 3.35706C14.2829 4.13057 14.8576 5.18344 15.0222 6.37928C15.1547 6.40442 15.2914 6.41759 15.4312 6.41759C16.0243 6.41759 16.5618 6.18077 16.954 5.79681C16.6932 4.36907 16.01 3.10103 15.0441 2.11777Z" fill="#6A12CC"/>
<path d="M6.84838 16.6091C7.03413 17.4154 7.44344 18.128 8.01283 18.6362C8.58221 19.1444 9.27985 19.4199 9.99755 19.4199C10.7152 19.4199 11.4129 19.1444 11.9823 18.6362C12.5517 18.128 12.961 17.4154 13.1467 16.6091" stroke="#6A12CC" stroke-width="2" stroke-linecap="round"/>
<ellipse cx="15.4313" cy="4.25054" rx="2.17351" ry="2.16704" fill="#6A12CC"/>
</svg>
