<svg width="16" height="20" viewBox="0 0 16 20" fill="none" xmlns="http://www.w3.org/2000/svg">
<path fill-rule="evenodd" clip-rule="evenodd" d="M13 0H3C1.34315 0 0 1.34315 0 3V17C0 18.6569 1.34314 20 3 20H13C14.6569 20 16 18.6569 16 17V3C16 1.34315 14.6569 0 13 0ZM2 3C2 2.44772 2.44772 2 3 2L3 18C2.44772 18 2 17.5523 2 17V3ZM5 18H13C13.5523 18 14 17.5523 14 17V3C14 2.44772 13.5523 2 13 2H5V18ZM8 13C7.44772 13 7 12.5523 7 12C7 11.4477 7.44772 11 8 11H11C11.5523 11 12 11.4477 12 12C12 12.5523 11.5523 13 11 13H8ZM7 15C7 15.5523 7.44772 16 8 16H11C11.5523 16 12 15.5523 12 15C12 14.4477 11.5523 14 11 14H8C7.44772 14 7 14.4477 7 15Z" fill="#7D8592"/>
</svg>
