<svg width="24" height="24" viewBox="0 0 24 24" fill="none" xmlns="http://www.w3.org/2000/svg">
<path fill-rule="evenodd" clip-rule="evenodd" d="M10.3384 2.00393C9.76072 1.95497 9.25148 2.36898 9.20094 2.92865L9.01793 4.95541C8.96739 5.51509 9.3947 6.00849 9.97234 6.05745C10.55 6.10642 11.0592 5.6924 11.1098 5.13273L11.2928 3.10597C11.3433 2.5463 10.916 2.0529 10.3384 2.00393ZM4.99744 5.68678C4.62471 5.25641 4.68265 4.61477 5.12685 4.25364C5.57104 3.89252 6.23328 3.94865 6.60601 4.37903L7.95576 5.93755C8.32848 6.36792 8.27054 7.00955 7.82635 7.37068C7.38215 7.73181 6.71991 7.67567 6.34719 7.2453L4.99744 5.68678ZM8.72258 9.4108C8.58805 9.01546 8.7157 8.5806 9.04483 8.31302C9.37395 8.04545 9.83813 7.99916 10.2166 8.19617L21.447 14.042C21.8075 14.2297 22.0226 14.6032 21.9981 14.9989C21.9737 15.3947 21.7141 15.7406 21.3331 15.8853L19.5993 16.5435L21.1787 18.3672C21.5514 18.7976 21.4934 19.4392 21.0493 19.8004L18.6364 21.762C18.1922 22.1231 17.53 22.067 17.1572 21.6366L15.5778 19.8129L14.6077 21.353C14.3945 21.6914 13.9978 21.879 13.5913 21.8336C13.1848 21.7882 12.8425 21.5181 12.7144 21.1416L8.72258 9.4108ZM17.4727 15.1657L18.4535 14.7934L11.5407 11.195L13.9979 18.4158L14.5467 17.5446C14.7228 17.265 15.027 17.0847 15.3641 17.0601C15.7012 17.0356 16.0299 17.1697 16.2472 17.4206L18.0909 19.5496L18.8952 18.8957L17.0514 16.7668C16.8342 16.5159 16.7548 16.179 16.8383 15.8616C16.9219 15.5442 17.158 15.2852 17.4727 15.1657ZM3.14149 7.98476C2.56384 7.9358 2.05459 8.34981 2.00406 8.90948C1.95352 9.46916 2.38083 9.96256 2.95848 10.0115L5.05032 10.1888C5.62797 10.2378 6.13721 9.82379 6.18775 9.26412C6.23829 8.70444 5.81098 8.21105 5.23334 8.16208L3.14149 7.98476Z" fill="#7D8592"/>
</svg>
