<svg width="100" height="100" viewBox="0 0 100 100" fill="none" xmlns="http://www.w3.org/2000/svg">
<path d="M35.1189 78.4L20.2 86.5377C19.3245 87.0151 18.5377 87.6019 17.8057 88.2415C26.5038 95.5754 37.7321 100 50 100C62.1774 100 73.334 95.6415 82.0075 88.4075C81.2075 87.732 80.3396 87.1245 79.3774 86.6453L63.4019 78.6585C61.3377 77.6264 60.034 75.5169 60.034 73.2094V66.9415C60.483 66.4302 60.9962 65.7736 61.5453 64.9981C63.7226 61.9226 65.3698 58.5396 66.5113 54.9905C68.5604 54.3585 70.0698 52.466 70.0698 50.2169V43.5264C70.0698 42.0547 69.4151 40.7396 68.3981 39.8188V30.1471C68.3981 30.1471 70.3849 15.0962 50.0019 15.0962C29.6189 15.0962 31.6057 30.1471 31.6057 30.1471V39.8188C30.5868 40.7396 29.934 42.0547 29.934 43.5264V50.2169C29.934 51.9792 30.8604 53.5302 32.2472 54.4264C33.9189 61.7037 38.2962 66.9415 38.2962 66.9415V73.0547C38.2943 75.2811 37.0755 77.332 35.1189 78.4Z" fill="white"/>
<path d="M50.8546 0.00744559C23.2452 -0.464253 0.479149 21.5357 0.00745052 49.1452C-0.260474 64.7999 6.71688 78.8697 17.8263 88.2263C18.5527 87.5923 19.332 87.0112 20.198 86.5395L35.1169 78.4018C37.0735 77.3339 38.2924 75.2829 38.2924 73.0527V66.9395C38.2924 66.9395 33.9131 61.7018 32.2433 54.4244C30.8584 53.5282 29.9301 51.9791 29.9301 50.215V43.5244C29.9301 42.0527 30.5848 40.7376 31.6018 39.8169V30.1452C31.6018 30.1452 29.615 15.0942 49.998 15.0942C70.381 15.0942 68.3942 30.1452 68.3942 30.1452V39.8169C69.4131 40.7376 70.0659 42.0527 70.0659 43.5244V50.215C70.0659 52.4641 68.5565 54.3565 66.5075 54.9886C65.3659 58.5376 63.7188 61.9207 61.5414 64.9961C60.9924 65.7716 60.4791 66.4282 60.0301 66.9395V73.2074C60.0301 75.515 61.3339 77.6263 63.398 78.6565L79.3735 86.6433C80.332 87.1225 81.198 87.7282 81.9961 88.4018C92.7697 79.4169 99.7301 65.9829 99.9886 50.8546C100.464 23.2452 78.4659 0.479144 50.8546 0.00744559Z" fill="#7D8592"/>
</svg>
