<svg width="24" height="24" viewBox="0 0 24 24" fill="none" xmlns="http://www.w3.org/2000/svg">
<path fill-rule="evenodd" clip-rule="evenodd" d="M2 12C2 17.5228 6.47715 22 12 22C17.5228 22 22 17.5228 22 12C22 6.47715 17.5228 2 12 2C6.47715 2 2 6.47715 2 12ZM4 12C4 7.58172 7.58172 4 12 4C16.4183 4 20 7.58172 20 12C20 16.4183 16.4183 20 12 20C7.58172 20 4 16.4183 4 12ZM13 6C13 5.44772 12.5523 5 12 5C11.4477 5 11 5.44772 11 6V7C9.34315 7 8 8.34315 8 10C8 11.6569 9.34315 13 11 13H13C13.5523 13 14 13.4477 14 14C14 14.5523 13.5523 15 13 15H9.5C8.94772 15 8.5 15.4477 8.5 16C8.5 16.5523 8.94772 17 9.5 17H11V18C11 18.5523 11.4477 19 12 19C12.5523 19 13 18.5523 13 18V17C14.6569 17 16 15.6569 16 14C16 12.3431 14.6569 11 13 11H11C10.4477 11 10 10.5523 10 10C10 9.44772 10.4477 9 11 9H14.5C15.0523 9 15.5 8.55228 15.5 8C15.5 7.44772 15.0523 7 14.5 7H13V6Z" fill="#7D8592"/>
</svg>
