<svg width="16" height="16" viewBox="0 0 16 16" fill="none" xmlns="http://www.w3.org/2000/svg">
<path d="M15 8L15.5857 7.53148L15.9605 8L15.5857 8.46852L15 8ZM8.7 8.75C8.28579 8.75 7.95 8.41421 7.95 8C7.95 7.58579 8.28579 7.25 8.7 7.25V8.75ZM12.7857 4.03148L15.5857 7.53148L14.4143 8.46852L11.6143 4.96852L12.7857 4.03148ZM15.5857 8.46852L12.7857 11.9685L11.6143 11.0315L14.4143 7.53148L15.5857 8.46852ZM15 8.75H8.7V7.25H15V8.75Z" fill="#FFD200"/>
<path d="M8.53703 13.5511L8.11066 12.9341L8.53703 13.5511ZM9.20992 12.7568L8.53121 12.4376L9.20992 12.7568ZM1.43278 13.0108L0.790972 13.3988L1.43278 13.0108ZM2.89101 14.2461L2.61376 14.943L2.89101 14.2461ZM1.43278 2.9892L2.07459 3.37725L1.43278 2.9892ZM1.75002 6.76013V9.23987H0.250025V6.76013H1.75002ZM8.65002 5.29235V5.15574H10.15V5.29235H8.65002ZM6.55976 13.313C7.06684 13.2285 7.40442 13.1717 7.66282 13.1074C7.91156 13.0456 8.0306 12.9894 8.11066 12.9341L8.96341 14.1681C8.67593 14.3668 8.36347 14.4789 8.02484 14.5631C7.69587 14.6449 7.29023 14.712 6.80636 14.7926L6.55976 13.313ZM10.15 10.8462C10.15 11.3365 10.1506 11.7475 10.1239 12.0854C10.0965 12.4332 10.0373 12.7597 9.88863 13.0759L8.53121 12.4376C8.57263 12.3496 8.60846 12.2229 8.62858 11.9675C8.64948 11.7022 8.65002 11.3601 8.65002 10.8462H10.15ZM8.11066 12.9341C8.2922 12.8086 8.43731 12.6374 8.53121 12.4376L9.88863 13.0759C9.68204 13.5153 9.36282 13.8921 8.96341 14.1681L8.11066 12.9341ZM1.75002 9.23987C1.75002 10.2722 1.75074 10.9962 1.80108 11.5532C1.85072 12.1027 1.94329 12.4056 2.07459 12.6228L0.790972 13.3988C0.489512 12.9002 0.365704 12.3361 0.307162 11.6882C0.249306 11.0479 0.250025 10.2443 0.250025 9.23987H1.75002ZM6.80636 14.7926C5.81517 14.9578 5.0223 15.0907 4.381 15.1389C3.73216 15.1877 3.15518 15.1584 2.61376 14.943L3.16827 13.5492C3.40402 13.643 3.7181 13.6845 4.26851 13.6431C4.82647 13.6012 5.54103 13.4828 6.55976 13.313L6.80636 14.7926ZM2.07459 12.6228C2.3284 13.0425 2.71246 13.3679 3.16827 13.5492L2.61376 14.943C1.85408 14.6407 1.21399 14.0985 0.790972 13.3988L2.07459 12.6228ZM6.55848 2.68675C5.54018 2.51704 4.82594 2.39873 4.26821 2.3568C3.71807 2.31544 3.40406 2.35695 3.16827 2.45076L2.61376 1.05702C3.15514 0.841632 3.73198 0.812255 4.38066 0.86102C5.02175 0.909215 5.81432 1.04204 6.80508 1.20716L6.55848 2.68675ZM0.250025 6.76013C0.250025 5.7557 0.249306 4.95209 0.307162 4.31179C0.365704 3.66392 0.489512 3.09976 0.790972 2.60115L2.07459 3.37725C1.94329 3.59441 1.85072 3.89732 1.80108 4.44678C1.75074 5.00381 1.75002 5.72778 1.75002 6.76013H0.250025ZM3.16827 2.45076C2.71246 2.63211 2.3284 2.95745 2.07459 3.37725L0.790972 2.60115C1.21399 1.9015 1.85408 1.35926 2.61376 1.05702L3.16827 2.45076ZM6.80508 1.20716C7.28963 1.28792 7.69587 1.35508 8.02532 1.43707C8.36448 1.52148 8.67739 1.63389 8.96521 1.83313L8.11147 3.06647C8.03128 3.01096 7.91209 2.95465 7.66306 2.89267C7.40432 2.82828 7.06629 2.77139 6.55848 2.68675L6.80508 1.20716ZM8.65002 5.15574C8.65002 4.64092 8.64948 4.29814 8.6285 4.03234C8.60831 3.77651 8.57236 3.64968 8.53079 3.56145L9.8877 2.92209C10.0369 3.23875 10.0963 3.56589 10.1239 3.91431C10.1506 4.25275 10.15 4.6645 10.15 5.15574H8.65002ZM8.96521 1.83313C9.36318 2.10861 9.68139 2.48425 9.8877 2.92209L8.53079 3.56145C8.43701 3.36243 8.29237 3.19169 8.11147 3.06647L8.96521 1.83313Z" fill="#FFD200"/>
</svg>
