<svg width="50" height="50" viewBox="0 0 50 50" fill="none" xmlns="http://www.w3.org/2000/svg">
<rect width="50" height="50" rx="25" fill="white"/>
<path d="M39.6394 18.229L28.9444 9.16862C28.0385 8.41837 26.8362 8 25.5861 8C24.336 8 23.1337 8.41837 22.2278 9.16862L11.5328 18.169C11.0576 18.5303 10.6754 18.975 10.4112 19.4739C10.1471 19.9728 10.007 20.5147 10 21.0641V33.9346C10.0182 35.0261 10.5322 36.0668 11.4296 36.8287C12.3271 37.5907 13.5346 38.0118 14.7878 37.9997H36.2122C37.4654 38.0118 38.6729 37.5907 39.5704 36.8287C40.4678 36.0668 40.9818 35.0261 41 33.9346V21.0641C40.9987 20.5368 40.8778 20.0149 40.6443 19.5284C40.4108 19.0418 40.0693 18.6003 39.6394 18.229ZM24.5356 11.3287C24.799 11.1189 25.1431 11.0026 25.5 11.0026C25.8569 11.0026 26.201 11.1189 26.4644 11.3287L35.8333 19.249L26.4128 27.1693C26.1493 27.3791 25.8053 27.4954 25.4483 27.4954C25.0914 27.4954 24.7474 27.3791 24.4839 27.1693L15.1667 19.249L24.5356 11.3287ZM37.5556 33.9346C37.5334 34.229 37.3811 34.5045 37.1305 34.7031C36.88 34.9017 36.5508 35.008 36.2122 34.9996H14.7878C14.4492 35.008 14.12 34.9017 13.8695 34.7031C13.6189 34.5045 13.4666 34.229 13.4444 33.9346V22.0241L20.4194 27.8744L17.5606 30.2744C17.2398 30.5555 17.0597 30.9357 17.0597 31.332C17.0597 31.7283 17.2398 32.1085 17.5606 32.3895C17.7206 32.5358 17.913 32.6524 18.1261 32.7323C18.3391 32.8122 18.5686 32.8538 18.8006 32.8545C19.244 32.853 19.6696 32.7026 19.9889 32.4345L23.0372 29.8844C23.7943 30.2874 24.6644 30.5006 25.5517 30.5006C26.4389 30.5006 27.309 30.2874 28.0661 29.8844L31.1144 32.4345C31.4337 32.7026 31.8594 32.853 32.3028 32.8545C32.5348 32.8538 32.7642 32.8122 32.9773 32.7323C33.1904 32.6524 33.3827 32.5358 33.5428 32.3895C33.8635 32.1085 34.0436 31.7283 34.0436 31.332C34.0436 30.9357 33.8635 30.5555 33.5428 30.2744L30.6667 27.8744L37.5556 22.0241V33.9346Z" fill="black"/>
</svg>
