<svg width="22" height="22" viewBox="0 0 22 22" fill="none" xmlns="http://www.w3.org/2000/svg">
<path d="M1 11L0.414348 10.5315L0.0395314 11L0.414348 11.4685L1 11ZM10 11.75C10.4142 11.75 10.75 11.4142 10.75 11C10.75 10.5858 10.4142 10.25 10 10.25V11.75ZM4.41435 5.53148L0.414348 10.5315L1.58565 11.4685L5.58565 6.46852L4.41435 5.53148ZM0.414348 11.4685L4.41435 16.4685L5.58565 15.5315L1.58565 10.5315L0.414348 11.4685ZM1 11.75H10V10.25H1V11.75Z" fill="#BEBEBE"/>
<path d="M12.3424 19.5571L12.4657 18.8173L12.3424 19.5571ZM19.9391 19.7477L20.4239 20.3199L19.9391 19.7477ZM14.0136 2.1644L13.8903 1.4246L14.0136 2.1644ZM19.9391 2.25232L20.4239 1.68006L19.9391 2.25232ZM12.4657 3.18273L14.1369 2.90419L13.8903 1.4246L12.2191 1.70314L12.4657 3.18273ZM20.25 8.08276V13.9172H21.75V8.08276H20.25ZM14.1369 19.0958L12.4657 18.8173L12.2191 20.2969L13.8903 20.5754L14.1369 19.0958ZM9.75 7.13193V6.38851H8.25V7.13193H9.75ZM9.75 15.6115V15.066H8.25V15.6115H9.75ZM12.4657 18.8173C11.6485 18.6811 11.1044 18.589 10.7013 18.469C10.3183 18.355 10.1535 18.2403 10.0462 18.1137L8.9017 19.0833C9.26843 19.5162 9.73965 19.7478 10.2733 19.9066C10.7869 20.0595 11.4399 20.167 12.2191 20.2969L12.4657 18.8173ZM8.25 15.6115C8.25 16.4014 8.24864 17.0633 8.31502 17.595C8.384 18.1475 8.53496 18.6504 8.9017 19.0833L10.0462 18.1137C9.939 17.9871 9.85298 17.8057 9.80347 17.4091C9.75136 16.9918 9.75 16.4399 9.75 15.6115H8.25ZM20.25 13.9172C20.25 15.5841 20.2482 16.7537 20.1248 17.623C20.0044 18.4715 19.7849 18.8954 19.4543 19.1754L20.4239 20.3199C21.1542 19.7013 21.4652 18.8539 21.6099 17.8338C21.7518 16.8344 21.75 15.5382 21.75 13.9172H20.25ZM13.8903 20.5754C15.4892 20.8419 16.7675 21.0567 17.7766 21.0811C18.8066 21.106 19.6936 20.9386 20.4239 20.3199L19.4543 19.1754C19.1238 19.4554 18.6696 19.6023 17.8128 19.5816C16.9351 19.5604 15.7811 19.3698 14.1369 19.0958L13.8903 20.5754ZM14.1369 2.90419C15.7811 2.63017 16.9351 2.43964 17.8128 2.41844C18.6696 2.39774 19.1238 2.54457 19.4543 2.82459L20.4239 1.68006C19.6936 1.06138 18.8066 0.893989 17.7766 0.918874C16.7675 0.943253 15.4892 1.15811 13.8903 1.4246L14.1369 2.90419ZM21.75 8.08276C21.75 6.46177 21.7518 5.16556 21.6099 4.16622C21.4652 3.14612 21.1542 2.29874 20.4239 1.68006L19.4543 2.82459C19.7849 3.1046 20.0044 3.52852 20.1248 4.37701C20.2482 5.24626 20.25 6.41593 20.25 8.08276H21.75ZM12.2191 1.70314C11.4399 1.833 10.7869 1.94046 10.2733 2.09336C9.73965 2.25223 9.26843 2.48381 8.9017 2.91672L10.0462 3.88629C10.1535 3.75971 10.3183 3.64503 10.7013 3.531C11.1044 3.411 11.6485 3.31892 12.4657 3.18273L12.2191 1.70314ZM9.75 6.38851C9.75 5.56008 9.75136 5.00818 9.80347 4.59085C9.85298 4.19431 9.939 4.01286 10.0462 3.88629L8.9017 2.91672C8.53496 3.34963 8.384 3.85252 8.31502 4.40502C8.24864 4.93674 8.25 5.5986 8.25 6.38851H9.75Z" fill="#BEBEBE"/>
</svg>
