<svg width="17" height="22" viewBox="0 0 17 22" fill="none" xmlns="http://www.w3.org/2000/svg">
<path d="M12.0871 7.69586C12.0871 6.52577 13.6434 6.21563 14.0562 7.31045C15.055 9.95877 15.7827 12.3279 15.7827 13.6088C15.7827 17.6908 12.4735 21 8.39147 21C4.30939 21 1.00022 17.6908 1.00022 13.6088C1.00022 12.2326 1.84019 9.6004 2.95381 6.71533C4.39639 2.97802 5.11767 1.10937 6.00804 1.00872C6.29295 0.976517 6.60376 1.03442 6.85795 1.16706C7.65234 1.58158 7.65234 3.61967 7.65234 7.69586C7.65234 8.92048 8.64509 9.91324 9.86972 9.91324C11.0943 9.91324 12.0871 8.92048 12.0871 7.69586Z" stroke="#6A12CC" stroke-width="2"/>
<path d="M6.91282 20.9997L6.52435 20.0285C5.85084 18.3447 6.13475 16.4288 7.26763 15.0127V15.0127C7.84358 14.2928 8.93856 14.2928 9.51451 15.0127V15.0127C10.6474 16.4288 10.9313 18.3447 10.2578 20.0285L9.86932 20.9997" stroke="#6A12CC" stroke-width="2"/>
</svg>
