<svg width="16" height="20" viewBox="0 0 16 20" fill="none" xmlns="http://www.w3.org/2000/svg">
<path fill-rule="evenodd" clip-rule="evenodd" d="M1 0C0.447715 0 0 0.447715 0 1C0 1.55228 0.447715 2 1 2L1 4C1 5.29912 1.12462 6.63628 1.81592 7.86526C2.27258 8.67709 2.94205 9.38338 3.8723 10C2.94205 10.6166 2.27258 11.3229 1.81592 12.1347C1.12462 13.3637 1 14.7009 1 16L1 18C0.447715 18 0 18.4477 0 19C0 19.5523 0.447715 20 1 20H15C15.5523 20 16 19.5523 16 19C16 18.4477 15.5523 18 15 18V16C15 14.7009 14.8754 13.3637 14.1841 12.1347C13.7274 11.3229 13.058 10.6166 12.1277 10C13.058 9.38338 13.7274 8.67709 14.1841 7.86526C14.8754 6.63628 15 5.29912 15 4V2C15.5523 2 16 1.55228 16 1C16 0.447715 15.5523 0 15 0H1ZM1 0L1.80347 1.01931L1.80339 1.01932L1 0ZM3 18H13V16C13 14.7991 12.8746 13.8863 12.4409 13.1153C12.0182 12.3637 11.2238 11.6127 9.6075 10.9198L9.01372 10.1665C9.0043 10.111 8.99972 10.0553 8.99974 10C8.99968 9.87139 9.02458 9.74069 9.07718 9.61476L9.08085 9.60608C9.08765 9.59022 9.09481 9.57462 9.10232 9.55929C9.15192 9.45805 9.2167 9.36866 9.29271 9.2927C9.37327 9.21209 9.46894 9.1441 9.57785 9.09346C9.58766 9.0889 9.59755 9.08449 9.6075 9.08024C11.2238 8.38731 12.0182 7.63627 12.4409 6.88474C12.8746 6.11372 13 5.20088 13 4V2H3V2.53726L9.01372 10.1665L9.01396 10.1679L3 2.53754L3 4C3 5.20088 3.12538 6.11372 3.55908 6.88474C3.98182 7.63629 4.77625 8.38735 6.39261 9.08029M9.01396 10.1679L9.60608 10.9191C9.59022 10.9123 9.57462 10.9052 9.55929 10.8977C9.45805 10.8481 9.36866 10.7833 9.29271 10.7073C9.21138 10.626 9.14289 10.5293 9.09211 10.4192C9.08693 10.408 9.08195 10.3967 9.07718 10.3852C9.04739 10.3139 9.02648 10.241 9.01396 10.1679ZM3 18L3 16C3 14.7991 3.12538 13.8863 3.55908 13.1153C3.98182 12.3637 4.77625 11.6127 6.39261 10.9197C6.40252 10.9155 6.41237 10.9111 6.42215 10.9065C6.53106 10.8559 6.62673 10.7879 6.70729 10.7073C6.7833 10.6313 6.84808 10.5419 6.89768 10.4407C6.90519 10.4254 6.91235 10.4098 6.91915 10.3939C6.92038 10.391 6.92161 10.3881 6.92282 10.3852C6.97542 10.2593 7.00032 10.1286 7.00026 10C7.00032 9.87139 6.97542 9.74069 6.92282 9.61476C6.91748 9.60197 6.91187 9.58928 6.90601 9.57671C6.85542 9.46828 6.78762 9.37298 6.70729 9.2927C6.63134 9.2167 6.54195 9.15192 6.44071 9.10232C6.42538 9.09481 6.40978 9.08765 6.39392 9.08085" fill="black"/>
</svg>
