<svg width="50" height="50" viewBox="0 0 50 50" fill="none" xmlns="http://www.w3.org/2000/svg">
<rect width="50" height="50" rx="25" fill="white"/>
<path d="M33.01 15.19C32.654 15.19 32.306 15.2956 32.01 15.4934C31.714 15.6911 31.4833 15.9723 31.347 16.3012C31.2108 16.6301 31.1751 16.992 31.2446 17.3412C31.314 17.6903 31.4855 18.0111 31.7372 18.2628C31.9889 18.5145 32.3097 18.686 32.6588 18.7554C33.008 18.8249 33.3699 18.7892 33.6988 18.653C34.0277 18.5167 34.3089 18.286 34.5066 17.99C34.7044 17.694 34.81 17.346 34.81 16.99C34.81 16.5126 34.6204 16.0548 34.2828 15.7172C33.9452 15.3796 33.4874 15.19 33.01 15.19ZM39.91 18.82C39.8808 17.5754 39.6477 16.3441 39.22 15.175C38.8386 14.1747 38.245 13.2689 37.48 12.52C36.7372 11.7511 35.8293 11.1613 34.825 10.795C33.659 10.3542 32.4263 10.1158 31.18 10.09C29.59 10 29.08 10 25 10C20.92 10 20.41 10 18.82 10.09C17.5737 10.1158 16.341 10.3542 15.175 10.795C14.1725 11.165 13.2654 11.7543 12.52 12.52C11.7511 13.2628 11.1613 14.1707 10.795 15.175C10.3542 16.341 10.1158 17.5737 10.09 18.82C10 20.41 10 20.92 10 25C10 29.08 10 29.59 10.09 31.18C10.1158 32.4263 10.3542 33.659 10.795 34.825C11.1613 35.8293 11.7511 36.7372 12.52 37.48C13.2654 38.2457 14.1725 38.835 15.175 39.205C16.341 39.6458 17.5737 39.8842 18.82 39.91C20.41 40 20.92 40 25 40C29.08 40 29.59 40 31.18 39.91C32.4263 39.8842 33.659 39.6458 34.825 39.205C35.8293 38.8387 36.7372 38.2489 37.48 37.48C38.2484 36.7339 38.8425 35.8273 39.22 34.825C39.6477 33.6559 39.8808 32.4246 39.91 31.18C39.91 29.59 40 29.08 40 25C40 20.92 40 20.41 39.91 18.82ZM37.21 31C37.1991 31.9522 37.0266 32.8956 36.7 33.79C36.4605 34.4428 36.0758 35.0326 35.575 35.515C35.0885 36.0108 34.4998 36.3946 33.85 36.64C32.9556 36.9666 32.0122 37.1391 31.06 37.15C29.56 37.225 29.005 37.24 25.06 37.24C21.115 37.24 20.56 37.24 19.06 37.15C18.0713 37.1685 17.0869 37.0163 16.15 36.7C15.5287 36.4421 14.967 36.0592 14.5 35.575C14.0021 35.0931 13.6223 34.5028 13.39 33.85C13.0238 32.9427 12.8207 31.9779 12.79 31C12.79 29.5 12.7 28.945 12.7 25C12.7 21.055 12.7 20.5 12.79 19C12.7967 18.0266 12.9744 17.0619 13.315 16.15C13.5791 15.5169 13.9844 14.9525 14.5 14.5C14.9557 13.9843 15.5189 13.5746 16.15 13.3C17.0643 12.9701 18.028 12.7976 19 12.79C20.5 12.79 21.055 12.7 25 12.7C28.945 12.7 29.5 12.7 31 12.79C31.9522 12.8009 32.8956 12.9734 33.79 13.3C34.4716 13.553 35.0834 13.9643 35.575 14.5C36.0666 14.9608 36.4506 15.5241 36.7 16.15C37.0334 17.0634 37.2059 18.0277 37.21 19C37.285 20.5 37.3 21.055 37.3 25C37.3 28.945 37.285 29.5 37.21 31ZM25 17.305C23.4787 17.308 21.9924 17.7618 20.729 18.6091C19.4655 19.4565 18.4816 20.6593 17.9015 22.0656C17.3213 23.472 17.1711 25.0187 17.4697 26.5104C17.7683 28.0021 18.5024 29.3718 19.5791 30.4465C20.6559 31.5211 22.027 32.2525 23.5193 32.5482C25.0116 32.8439 26.558 32.6907 27.9632 32.1078C29.3684 31.525 30.5693 30.5387 31.4142 29.2736C32.2591 28.0084 32.71 26.5213 32.71 25C32.712 23.9877 32.5138 22.9849 32.1269 22.0494C31.7399 21.114 31.1718 20.2642 30.4553 19.5491C29.7388 18.8339 28.8879 18.2675 27.9517 17.8824C27.0155 17.4973 26.0123 17.301 25 17.305ZM25 29.995C24.0121 29.995 23.0464 29.702 22.2249 29.1532C21.4035 28.6043 20.7633 27.8242 20.3852 26.9115C20.0072 25.9988 19.9082 24.9945 20.101 24.0255C20.2937 23.0566 20.7694 22.1666 21.468 21.468C22.1666 20.7694 23.0566 20.2937 24.0255 20.101C24.9945 19.9082 25.9988 20.0072 26.9115 20.3852C27.8242 20.7633 28.6043 21.4035 29.1532 22.2249C29.702 23.0464 29.995 24.0121 29.995 25C29.995 25.656 29.8658 26.3055 29.6148 26.9115C29.3638 27.5175 28.9958 28.0682 28.532 28.532C28.0682 28.9958 27.5175 29.3638 26.9115 29.6148C26.3055 29.8658 25.656 29.995 25 29.995Z" fill="black"/>
</svg>
