<svg width="22" height="20" viewBox="0 0 22 20" fill="none" xmlns="http://www.w3.org/2000/svg">
<path d="M1 7.66663C1 4.52395 1 2.95261 1.97631 1.97631C2.95261 1 4.52395 1 7.66663 1H14.3333C17.4759 1 19.0473 1 20.0236 1.97631C20.9999 2.95261 20.9999 4.52395 20.9999 7.66663V12.111C20.9999 15.2537 20.9999 16.8251 20.0236 17.8014C19.0473 18.7777 17.4759 18.7777 14.3333 18.7777H7.66663C4.52395 18.7777 2.95261 18.7777 1.97631 17.8014C1 16.8251 1 15.2537 1 12.111V7.66663Z" stroke="#6A12CC" stroke-width="2"/>
<path d="M6.55615 1V1C7.51289 1 7.99126 1 8.39715 1.1919C8.53221 1.25576 8.65969 1.33454 8.77721 1.42679C9.13037 1.70401 9.3443 2.13187 9.77216 2.9876L11.0061 5.45548C11.544 6.53132 11.813 7.06923 12.2963 7.36793C12.7796 7.66663 13.381 7.66663 14.5838 7.66663H17.0005C18.8861 7.66663 19.8289 7.66663 20.4147 8.25242C21.0005 8.8382 21.0005 9.78101 21.0005 11.6666V14.3333" stroke="#6A12CC" stroke-width="2"/>
</svg>
