<svg width="24" height="24" viewBox="0 0 24 24" fill="none" xmlns="http://www.w3.org/2000/svg">
<path d="M5.33333 2.66667C5.33333 3.37391 5.05238 4.05219 4.55228 4.55228C4.05219 5.05238 3.37391 5.33333 2.66667 5.33333C1.95942 5.33333 1.28114 5.05238 0.781048 4.55228C0.280951 4.05219 0 3.37391 0 2.66667C0 1.95942 0.280951 1.28115 0.781048 0.781048C1.28114 0.280951 1.95942 0 2.66667 0C3.37391 0 4.05219 0.280951 4.55228 0.781048C5.05238 1.28115 5.33333 1.95942 5.33333 2.66667Z" fill="#121212"/>
<path d="M5.33333 12C5.33333 12.7073 5.05238 13.3856 4.55228 13.8857C4.05219 14.3858 3.37391 14.6667 2.66667 14.6667C1.95942 14.6667 1.28114 14.3858 0.781048 13.8857C0.280951 13.3856 0 12.7073 0 12C0 11.2928 0.280951 10.6145 0.781048 10.1144C1.28114 9.61433 1.95942 9.33337 2.66667 9.33337C3.37391 9.33337 4.05219 9.61433 4.55228 10.1144C5.05238 10.6145 5.33333 11.2928 5.33333 12Z" fill="#121212"/>
<path d="M2.66667 24C3.37391 24 4.05219 23.719 4.55228 23.2189C5.05238 22.7188 5.33333 22.0405 5.33333 21.3333C5.33333 20.626 5.05238 19.9478 4.55228 19.4477C4.05219 18.9476 3.37391 18.6666 2.66667 18.6666C1.95942 18.6666 1.28114 18.9476 0.781048 19.4477C0.280951 19.9478 0 20.626 0 21.3333C0 22.0405 0.280951 22.7188 0.781048 23.2189C1.28114 23.719 1.95942 24 2.66667 24Z" fill="#121212"/>
<path d="M14.6663 2.66667C14.6663 3.37391 14.3854 4.05219 13.8853 4.55228C13.3852 5.05238 12.7069 5.33333 11.9997 5.33333C11.2924 5.33333 10.6142 5.05238 10.1141 4.55228C9.61396 4.05219 9.33301 3.37391 9.33301 2.66667C9.33301 1.95942 9.61396 1.28115 10.1141 0.781048C10.6142 0.280951 11.2924 0 11.9997 0C12.7069 0 13.3852 0.280951 13.8853 0.781048C14.3854 1.28115 14.6663 1.95942 14.6663 2.66667Z" fill="#121212"/>
<path d="M11.9997 14.6667C12.7069 14.6667 13.3852 14.3858 13.8853 13.8857C14.3854 13.3856 14.6663 12.7073 14.6663 12C14.6663 11.2928 14.3854 10.6145 13.8853 10.1144C13.3852 9.61433 12.7069 9.33337 11.9997 9.33337C11.2924 9.33337 10.6142 9.61433 10.1141 10.1144C9.61396 10.6145 9.33301 11.2928 9.33301 12C9.33301 12.7073 9.61396 13.3856 10.1141 13.8857C10.6142 14.3858 11.2924 14.6667 11.9997 14.6667Z" fill="#121212"/>
<path d="M14.6663 21.3333C14.6663 22.0405 14.3854 22.7188 13.8853 23.2189C13.3852 23.719 12.7069 24 11.9997 24C11.2924 24 10.6142 23.719 10.1141 23.2189C9.61396 22.7188 9.33301 22.0405 9.33301 21.3333C9.33301 20.626 9.61396 19.9478 10.1141 19.4477C10.6142 18.9476 11.2924 18.6666 11.9997 18.6666C12.7069 18.6666 13.3852 18.9476 13.8853 19.4477C14.3854 19.9478 14.6663 20.626 14.6663 21.3333Z" fill="#121212"/>
<path d="M21.3337 5.33333C22.0409 5.33333 22.7192 5.05238 23.2193 4.55228C23.7194 4.05219 24.0003 3.37391 24.0003 2.66667C24.0003 1.95942 23.7194 1.28115 23.2193 0.781048C22.7192 0.280951 22.0409 0 21.3337 0C20.6264 0 19.9481 0.280951 19.448 0.781048C18.9479 1.28115 18.667 1.95942 18.667 2.66667C18.667 3.37391 18.9479 4.05219 19.448 4.55228C19.9481 5.05238 20.6264 5.33333 21.3337 5.33333Z" fill="#121212"/>
<path d="M24.0003 12C24.0003 12.7073 23.7194 13.3856 23.2193 13.8857C22.7192 14.3858 22.0409 14.6667 21.3337 14.6667C20.6264 14.6667 19.9481 14.3858 19.448 13.8857C18.9479 13.3856 18.667 12.7073 18.667 12C18.667 11.2928 18.9479 10.6145 19.448 10.1144C19.9481 9.61433 20.6264 9.33337 21.3337 9.33337C22.0409 9.33337 22.7192 9.61433 23.2193 10.1144C23.7194 10.6145 24.0003 11.2928 24.0003 12Z" fill="#121212"/>
<path d="M21.3337 24C22.0409 24 22.7192 23.719 23.2193 23.2189C23.7194 22.7188 24.0003 22.0405 24.0003 21.3333C24.0003 20.626 23.7194 19.9478 23.2193 19.4477C22.7192 18.9476 22.0409 18.6666 21.3337 18.6666C20.6264 18.6666 19.9481 18.9476 19.448 19.4477C18.9479 19.9478 18.667 20.626 18.667 21.3333C18.667 22.0405 18.9479 22.7188 19.448 23.2189C19.9481 23.719 20.6264 24 21.3337 24Z" fill="#121212"/>
</svg>
