<svg width="20" height="20" viewBox="0 0 20 20" fill="none" xmlns="http://www.w3.org/2000/svg">
<path fill-rule="evenodd" clip-rule="evenodd" d="M0 10C0 15.5228 4.47715 20 10 20C15.5228 20 20 15.5228 20 10C20 4.47715 15.5228 0 10 0C4.47715 0 0 4.47715 0 10ZM2 10C2 5.58172 5.58172 2 10 2C14.4183 2 18 5.58172 18 10C18 14.4183 14.4183 18 10 18C5.58172 18 2 14.4183 2 10ZM8.52814 7.11833C8.8533 6.94431 9.24784 6.96338 9.5547 7.16795L12.5547 9.16795C12.8329 9.35342 13 9.66565 13 10C13 10.3344 12.8329 10.6466 12.5547 10.8321L9.5547 12.8321C9.24784 13.0366 8.8533 13.0557 8.52814 12.8817C8.20298 12.7077 8 12.3688 8 12V8C8 7.63121 8.20298 7.29235 8.52814 7.11833Z" fill="black"/>
</svg>
