<svg width="10" height="8" viewBox="0 0 10 8" fill="none" xmlns="http://www.w3.org/2000/svg">
<path d="M9.60654 2.75126C9.60808 2.77877 9.60606 2.80677 9.59914 2.83458L8.98232 5.30187C8.95121 5.42617 8.83981 5.51357 8.71174 5.51425L5.0108 5.53294C5.01032 5.53294 5.00987 5.53294 5.00938 5.53294H1.30841C1.17966 5.53294 1.06748 5.44524 1.03637 5.3203L0.419551 2.84367C0.412449 2.81511 0.410393 2.78632 0.412187 2.7581C0.17357 2.68292 0 2.45963 0 2.19649C0 1.87182 0.264112 1.6077 0.588785 1.6077C0.913458 1.6077 1.17757 1.87182 1.17757 2.19649C1.17757 2.37933 1.09379 2.54292 0.962617 2.65099L1.73488 3.42909C1.93006 3.62576 2.2009 3.73851 2.47798 3.73851C2.80561 3.73851 3.11798 3.58292 3.31469 3.32225L4.58385 1.6406C4.47723 1.53406 4.41121 1.38684 4.41121 1.22453C4.41121 0.899854 4.67533 0.635742 5 0.635742C5.32467 0.635742 5.58878 0.899854 5.58878 1.22453C5.58878 1.38199 5.52628 1.5249 5.42523 1.63066C5.42557 1.63111 5.42598 1.63148 5.42632 1.63197L6.68628 3.31825C6.88292 3.58142 7.19641 3.73855 7.52497 3.73855C7.8046 3.73855 8.06755 3.62965 8.26527 3.43189L9.04239 2.65477C8.90845 2.54673 8.82243 2.38157 8.82243 2.19649C8.82243 1.87182 9.08654 1.6077 9.41121 1.6077C9.73589 1.6077 10 1.87182 10 2.19649C10 2.4526 9.83533 2.67043 9.60654 2.75126ZM8.92213 6.41144C8.92213 6.2566 8.7966 6.13107 8.64176 6.13107H1.38942C1.23458 6.13107 1.10905 6.2566 1.10905 6.41144V7.08434C1.10905 7.23918 1.23458 7.36471 1.38942 7.36471H8.64176C8.7966 7.36471 8.92213 7.23918 8.92213 7.08434V6.41144Z" fill="#6A12CC"/>
</svg>
