<svg width="24" height="24" viewBox="0 0 24 24" fill="none" xmlns="http://www.w3.org/2000/svg">
<path d="M4.14267 4.68319C2.38736 6.4385 1.29498 8.74813 1.05167 11.2186C0.80835 13.689 1.42915 16.1674 2.80828 18.2314C4.18742 20.2954 6.23956 21.8174 8.61505 22.538C10.9905 23.2586 13.5424 23.1332 15.8358 22.1832C18.1292 21.2333 20.0223 19.5175 21.1925 17.3282C22.3627 15.139 22.7376 12.6117 22.2533 10.177C21.769 7.74231 20.4555 5.55087 18.5366 3.97606C16.6177 2.40126 14.2121 1.54053 11.7297 1.54053" stroke="#6A12CC" stroke-width="2" stroke-linecap="round"/>
<path d="M11.7291 12.2703L6.32373 6.86487" stroke="#6A12CC" stroke-width="2" stroke-linecap="round"/>
<path d="M11.7295 2V4.7027" stroke="#6A12CC" stroke-width="2" stroke-linecap="round"/>
<path d="M21.4595 12.2703L19.2973 12.2703" stroke="#6A12CC" stroke-width="2" stroke-linecap="round"/>
<path d="M11.7295 19.8378V22" stroke="#6A12CC" stroke-width="2" stroke-linecap="round"/>
<path d="M4.1626 12.2703L2.00044 12.2703" stroke="#6A12CC" stroke-width="2" stroke-linecap="round"/>
</svg>
