<svg width="16" height="20" viewBox="0 0 16 20" fill="none" xmlns="http://www.w3.org/2000/svg">
<path fill-rule="evenodd" clip-rule="evenodd" d="M1.00341 7.04925C1.00341 3.15606 4.14811 0 8.0273 0C11.9065 0 15.0512 3.15606 15.0512 7.04925C15.0512 8.30842 14.7222 9.49049 14.1459 10.5136L15.9673 17.4052C16.056 17.7408 15.9661 18.0987 15.7295 18.352C15.4929 18.6054 15.1428 18.7185 14.8034 18.6514L12.5299 18.2016L10.703 19.7602C10.4383 19.9861 10.0759 20.0584 9.74519 19.9514C9.41447 19.8444 9.16246 19.5732 9.07906 19.2347L8.00084 14.858L6.92262 19.2346C6.83922 19.5732 6.58721 19.8443 6.25649 19.9514C5.92576 20.0584 5.5634 19.9861 5.29864 19.7602L3.47181 18.2016L1.19832 18.6513C0.858833 18.7185 0.50882 18.6054 0.272184 18.352C0.0355483 18.0986 -0.0543178 17.7408 0.0343976 17.4051L1.87286 10.4491C1.31874 9.44096 1.00341 8.28206 1.00341 7.04925ZM9.82367 13.8658L10.6382 17.1721L11.599 16.3524C11.832 16.1535 12.1428 16.0722 12.4429 16.1316L13.6158 16.3636L12.5741 12.4224C11.7875 13.0935 10.8517 13.5937 9.82367 13.8658ZM3.43736 12.3853C4.22017 13.0641 5.15393 13.5724 6.18128 13.8525L5.3635 17.172L4.40271 16.3523C4.16963 16.1535 3.8589 16.0722 3.55876 16.1316L2.3859 16.3636L3.43736 12.3853ZM8.0273 2.01407C5.25645 2.01407 3.01023 4.2684 3.01023 7.04925C3.01023 9.8301 5.25645 12.0844 8.0273 12.0844C10.7981 12.0844 13.0444 9.8301 13.0444 7.04925C13.0444 4.2684 10.7981 2.01407 8.0273 2.01407Z" fill="black"/>
</svg>
