<svg width="22" height="22" viewBox="0 0 22 22" fill="none" xmlns="http://www.w3.org/2000/svg"><path d="M13.1151 2.3618L12.3688 2.4363V2.4363L13.1151 2.3618ZM12.9633 1.5427L13.6303 1.19973L13.6303 1.19973L12.9633 1.5427ZM13.4071 3.81215L14.0053 3.35971L14.0053 3.35971L13.4071 3.81215ZM14.3427 4.19932L14.2392 3.4565L14.2392 3.4565L14.3427 4.19932ZM15.5718 3.3813L15.0964 2.80124L15.0964 2.80124L15.5718 3.3813ZM16.2545 2.91123L16.485 3.62491L16.485 3.62491L16.2545 2.91123ZM16.9625 2.94655L16.6621 3.63374L16.6621 3.63374L16.9625 2.94655ZM17.5949 3.4822L18.1555 2.98393L18.1411 2.9677L18.1257 2.95233L17.5949 3.4822ZM17.595 3.48222L17.0344 3.9805L17.0488 3.99673L17.0642 4.01209L17.595 3.48222ZM18.487 4.37584L17.9562 4.90571L18.487 4.37584ZM19.0247 5.01378L18.3362 5.31115L18.3362 5.31115L19.0247 5.01378ZM19.0596 5.71347L18.3449 5.48607L18.3449 5.48607L19.0596 5.71347ZM18.5872 6.40273L19.1176 6.93306L19.1442 6.90638L19.1681 6.87716L18.5872 6.40273ZM18.5872 6.40274L18.0569 5.87241L18.0302 5.89909L18.0064 5.92831L18.5872 6.40274ZM17.7675 7.64004L17.0242 7.53963V7.53963L17.7675 7.64004ZM18.1529 8.56975L18.6071 7.97289L18.6071 7.97288L18.1529 8.56975ZM19.6051 8.86374L19.5303 9.61001L19.6051 8.86374ZM20.4231 9.01577L20.7664 8.34898V8.34898L20.4231 9.01577ZM20.8955 9.53793L20.1978 9.81311L20.8955 9.53793ZM20.8957 12.4616L20.1979 12.1868V12.1868L20.8957 12.4616ZM20.4227 12.9844L20.0796 12.3175V12.3175L20.4227 12.9844ZM19.6056 13.1362L19.5309 12.3899H19.5309L19.6056 13.1362ZM18.1552 13.4297L17.7015 12.8325V12.8325L18.1552 13.4297ZM17.7693 14.3605L17.0261 14.4614V14.4614L17.7693 14.3605ZM18.5886 15.5967L18.0078 16.0711L18.0316 16.1003L18.0583 16.127L18.5886 15.5967ZM18.5886 15.5967L19.1695 15.1223L19.1456 15.093L19.119 15.0664L18.5886 15.5967ZM19.0611 16.286L19.7758 16.0585L19.7758 16.0585L19.0611 16.286ZM19.0262 16.9859L18.3377 16.6884V16.6884L19.0262 16.9859ZM18.4886 17.6236L17.9578 17.0938L17.9578 17.0938L18.4886 17.6236ZM17.5969 18.5169L18.1272 19.0473L18.1277 19.0468L17.5969 18.5169ZM17.5969 18.5169L17.0665 17.9866L17.0661 17.9871L17.5969 18.5169ZM16.9636 19.0532L17.2637 19.7405H17.2637L16.9636 19.0532ZM16.2564 19.0885L16.0262 19.8022L16.0262 19.8023L16.2564 19.0885ZM15.5729 18.6179L15.0975 19.198H15.0975L15.5729 18.6179ZM14.3422 17.799L14.2391 18.5419L14.3422 17.799ZM13.4077 18.1858L12.8098 17.7329L12.8098 17.7329L13.4077 18.1858ZM13.1152 19.6377L12.3689 19.5632H12.3689L13.1152 19.6377ZM12.9631 20.4577L13.63 20.8009L13.63 20.8009L12.9631 20.4577ZM12.4411 20.9302L12.7164 21.6278H12.7164L12.4411 20.9302ZM9.52436 20.9303L9.24919 21.628L9.2492 21.628L9.52436 20.9303ZM9.00204 20.4575L8.33513 20.8006L8.33513 20.8006L9.00204 20.4575ZM8.85015 19.638L8.10386 19.7125L8.85015 19.638ZM8.55781 18.1867L9.15575 17.7339L8.55781 18.1867ZM7.62298 17.7998L7.72616 18.5427H7.72616L7.62298 17.7998ZM6.39271 18.6184L6.86813 19.1985H6.86813L6.39271 18.6184ZM5.70944 19.0889L5.47911 18.3751H5.4791L5.70944 19.0889ZM5.00203 19.0536L4.7018 19.7409L4.70181 19.7409L5.00203 19.0536ZM4.36897 18.5175L4.89976 17.9876H4.89976L4.36897 18.5175ZM3.47723 17.6242L2.94132 18.1489L2.94644 18.1541L3.47723 17.6242ZM3.47722 17.6242L4.01312 17.0994L4.00801 17.0943L3.47722 17.6242ZM2.93949 16.9862L2.25095 17.2835L2.93949 16.9862ZM2.90461 16.2866L2.1899 16.0592L2.1899 16.0592L2.90461 16.2866ZM3.37717 15.5971L2.7963 15.1226H2.7963L3.37717 15.5971ZM4.1968 14.3602L4.94001 14.4609V14.4609L4.1968 14.3602ZM3.81108 13.4299L3.35716 14.027H3.35716L3.81108 13.4299ZM2.35989 13.1362L2.43464 12.39L2.39736 12.3862H2.35989V13.1362ZM2.35988 13.1362L2.28512 13.8825L2.32241 13.8862H2.35988V13.1362ZM1.54243 12.9843L1.19925 13.6512H1.19926L1.54243 12.9843ZM1.06965 12.4618L1.76741 12.1868H1.76741L1.06965 12.4618ZM1.06981 9.53774L1.76745 9.81306L1.76745 9.81306L1.06981 9.53774ZM1.54202 9.01587L1.19854 8.34914L1.19854 8.34914L1.54202 9.01587ZM2.36045 8.86372L2.43521 9.60998H2.43521L2.36045 8.86372ZM3.81335 8.56949L3.35902 7.97276H3.35902L3.81335 8.56949ZM4.19862 7.64026L4.9419 7.54007V7.54007L4.19862 7.64026ZM3.37856 6.40235L2.75452 6.81838L2.77469 6.84863L2.79769 6.87679L3.37856 6.40235ZM3.37855 6.40235L4.00259 5.98633L3.98242 5.95607L3.95943 5.92792L3.37855 6.40235ZM2.90609 5.71289L3.62081 5.48559V5.48559L2.90609 5.71289ZM2.94097 5.01344L2.2524 4.71616L2.2524 4.71616L2.94097 5.01344ZM3.47881 4.37528L4.00961 4.90514H4.00961L3.47881 4.37528ZM4.37088 3.48166L3.84055 2.95133L3.84009 2.95179L4.37088 3.48166ZM4.37088 3.48166L4.90121 4.01199L4.90167 4.01153L4.37088 3.48166ZM5.00311 2.94615L5.30365 3.6333L5.30365 3.6333L5.00311 2.94615ZM5.71139 2.91082L5.94206 2.19717L5.94206 2.19717L5.71139 2.91082ZM6.39378 3.38075L5.91835 3.96081L5.93085 3.97105L5.94378 3.98075L6.39378 3.38075ZM6.39378 3.38075L6.8692 2.80069L6.85671 2.79044L6.84378 2.78075L6.39378 3.38075ZM7.62246 4.19853L7.51878 4.94133V4.94133L7.62246 4.19853ZM8.55838 3.81124L9.15662 4.26356L9.15662 4.26356L8.55838 3.81124ZM8.8502 2.36149L9.59649 2.43599L9.6002 2.39884V2.36149H8.8502ZM8.8502 2.36149L8.10962 2.243L8.1002 2.30187V2.36149H8.8502ZM8.8502 2.36148L9.59078 2.47997L9.59429 2.45806L9.59649 2.43598L8.8502 2.36148ZM9.00185 1.54288L9.6689 1.88572L9.66891 1.88572L9.00185 1.54288ZM9.52475 1.06959L9.24987 0.371775L9.24986 0.371775L9.52475 1.06959ZM12.4407 1.06966L12.7157 0.371905L12.7157 0.371905L12.4407 1.06966ZM13.8614 2.2873C13.8408 2.08045 13.822 1.88898 13.7953 1.72923C13.7673 1.56223 13.7235 1.381 13.6303 1.19973L12.2964 1.88567C12.29 1.87334 12.3005 1.88495 12.3159 1.9769C12.3325 2.0761 12.3462 2.20971 12.3688 2.4363L13.8614 2.2873ZM14.0053 3.35971C14.0311 3.39387 14.0029 3.38153 13.9664 3.17728C13.9311 2.98046 13.9034 2.70849 13.8614 2.2873L12.3688 2.4363C12.4084 2.83254 12.4419 3.17365 12.4898 3.44159C12.5365 3.70211 12.6135 4.00623 12.8089 4.26459L14.0053 3.35971ZM14.2392 3.4565C14.1494 3.46901 14.0599 3.43198 14.0053 3.35971L12.8089 4.26459C13.1916 4.77048 13.818 5.02971 14.4462 4.94214L14.2392 3.4565ZM15.0964 2.80124C14.7698 3.06893 14.5587 3.24128 14.3951 3.3553C14.2255 3.4735 14.197 3.46238 14.2392 3.4565L14.4462 4.94214C14.7669 4.89744 15.036 4.73705 15.2529 4.58582C15.4759 4.4304 15.7401 4.21314 16.0473 3.96136L15.0964 2.80124ZM16.0239 2.19756C15.8308 2.25995 15.6725 2.35683 15.5353 2.45485C15.4041 2.54858 15.2563 2.67021 15.0964 2.80124L16.0473 3.96136C16.2224 3.8178 16.3259 3.73349 16.4072 3.67538C16.4826 3.62156 16.4981 3.6207 16.485 3.62491L16.0239 2.19756ZM17.263 2.25937C16.8713 2.08814 16.4306 2.06616 16.0239 2.19756L16.485 3.62491C16.5431 3.60614 16.6061 3.60928 16.6621 3.63374L17.263 2.25937ZM18.1257 2.95233C17.9797 2.80606 17.8448 2.67032 17.7235 2.56401C17.5968 2.45282 17.4489 2.34067 17.263 2.25936L16.6621 3.63374C16.6495 3.62825 16.6648 3.63065 16.7344 3.69169C16.8096 3.75761 16.9042 3.8518 17.0642 4.01208L18.1257 2.95233ZM18.1555 2.98395L18.1555 2.98393L17.0344 3.98048L17.0344 3.9805L18.1555 2.98395ZM19.0178 3.84597L18.1258 2.95235L17.0642 4.01209L17.9562 4.90571L19.0178 3.84597ZM19.7132 4.71641C19.6322 4.52876 19.5197 4.37955 19.408 4.25161C19.3012 4.12932 19.1648 3.99321 19.0178 3.84597L17.9562 4.90571C18.1173 5.06706 18.2119 5.16239 18.2781 5.23816C18.3393 5.30828 18.3416 5.32375 18.3362 5.31115L19.7132 4.71641ZM19.7743 5.94086C19.9023 5.5387 19.8806 5.10384 19.7132 4.7164L18.3362 5.31115C18.3601 5.3665 18.3632 5.42862 18.3449 5.48607L19.7743 5.94086ZM19.1681 6.87716C19.3 6.71569 19.4224 6.56646 19.5166 6.43404C19.6151 6.29556 19.7123 6.13577 19.7743 5.94086L18.3449 5.48607C18.3491 5.47286 18.3484 5.48851 18.2942 5.56466C18.2357 5.64684 18.1509 5.75139 18.0064 5.9283L19.1681 6.87716ZM19.1176 6.93307L19.1176 6.93306L18.0569 5.8724L18.0569 5.87241L19.1176 6.93307ZM18.5107 7.74046C18.505 7.78294 18.4936 7.75425 18.6122 7.58345C18.7265 7.41874 18.8995 7.20606 19.1681 6.87717L18.0064 5.92831C17.7537 6.23767 17.5357 6.50369 17.3799 6.72809C17.2284 6.94639 17.0678 7.21723 17.0242 7.53963L18.5107 7.74046ZM18.6071 7.97288C18.5355 7.9184 18.4987 7.82963 18.5107 7.74046L17.0242 7.53963C16.9399 8.16384 17.1975 8.78521 17.6988 9.16662L18.6071 7.97288ZM19.6798 8.11748C19.2582 8.07524 18.9861 8.04744 18.7893 8.01201C18.5854 7.97531 18.5731 7.94705 18.6071 7.97289L17.6988 9.16662C17.9575 9.3635 18.2622 9.44125 18.5236 9.48829C18.7921 9.53661 19.1338 9.57028 19.5303 9.61001L19.6798 8.11748ZM20.7664 8.34898C20.5852 8.25568 20.4042 8.21178 20.2372 8.18374C20.0775 8.15693 19.8863 8.13816 19.6798 8.11748L19.5303 9.61001C19.7565 9.63267 19.8898 9.64641 19.9887 9.66302C20.0803 9.6784 20.0919 9.68885 20.0797 9.68257L20.7664 8.34898ZM21.5932 9.26275C21.4375 8.86799 21.1437 8.54325 20.7664 8.34898L20.0797 9.68257C20.1336 9.71032 20.1756 9.75671 20.1978 9.81311L21.5932 9.26275ZM21.7153 10.367C21.7153 10.1595 21.7157 9.96736 21.7049 9.80584C21.6936 9.63689 21.668 9.45234 21.5932 9.26275L20.1978 9.81311C20.1928 9.80035 20.202 9.81292 20.2082 9.90559C20.2149 10.0057 20.2153 10.1397 20.2153 10.367H21.7153ZM21.7153 11.6336V10.367H20.2153V11.6336H21.7153ZM21.5935 12.7365C21.6681 12.5471 21.6937 12.3628 21.7049 12.194C21.7157 12.0327 21.7153 11.8408 21.7153 11.6336H20.2153C20.2153 11.8606 20.2149 11.9944 20.2082 12.0944C20.2021 12.187 20.1929 12.1995 20.1979 12.1868L21.5935 12.7365ZM20.7657 13.6514C21.1436 13.457 21.4378 13.1318 21.5935 12.7365L20.1979 12.1868C20.1756 12.2433 20.1336 12.2897 20.0796 12.3175L20.7657 13.6514ZM19.6804 13.8825C19.8866 13.8618 20.0776 13.8431 20.2371 13.8163C20.4038 13.7883 20.5847 13.7445 20.7657 13.6514L20.0796 12.3175C20.0918 12.3112 20.0802 12.3216 19.9887 12.337C19.8899 12.3536 19.7568 12.3673 19.5309 12.3899L19.6804 13.8825ZM18.6089 14.0268C18.575 14.0526 18.5873 14.0244 18.791 13.9878C18.9876 13.9524 19.2592 13.9247 19.6804 13.8825L19.5309 12.3899C19.1348 12.4296 18.7936 12.4632 18.5254 12.5115C18.2644 12.5584 17.96 12.636 17.7015 12.8325L18.6089 14.0268ZM18.5125 14.2595C18.5003 14.1703 18.5372 14.0813 18.6089 14.0268L17.7015 12.8325C17.1992 13.2141 16.9412 13.8364 17.0261 14.4614L18.5125 14.2595ZM19.1695 15.1222C18.9011 14.7936 18.7282 14.5811 18.6139 14.4165C18.4954 14.2457 18.5067 14.2171 18.5125 14.2595L17.0261 14.4614C17.0698 14.7834 17.2304 15.0539 17.3818 15.272C17.5375 15.4962 17.7553 15.762 18.0078 16.0711L19.1695 15.1222ZM19.119 15.0664L19.119 15.0663L18.0583 16.127L18.0583 16.127L19.119 15.0664ZM19.7758 16.0585C19.7137 15.8637 19.6165 15.7039 19.518 15.5654C19.4238 15.433 19.3014 15.2838 19.1695 15.1223L18.0078 16.0711C18.1523 16.2481 18.2372 16.3526 18.2957 16.4349C18.3499 16.511 18.3506 16.5267 18.3464 16.5135L19.7758 16.0585ZM19.7147 17.2833C19.8821 16.8958 19.9038 16.4608 19.7758 16.0585L18.3464 16.5135C18.3647 16.5709 18.3616 16.6331 18.3377 16.6884L19.7147 17.2833ZM19.0194 18.1535C19.1664 18.0063 19.3028 17.8702 19.4095 17.748C19.5212 17.6201 19.6336 17.4709 19.7147 17.2833L18.3377 16.6884C18.3431 16.6758 18.3408 16.6913 18.2796 16.7614C18.2135 16.8371 18.1189 16.9325 17.9578 17.0938L19.0194 18.1535ZM18.1277 19.0468L19.0194 18.1535L17.9578 17.0938L17.0661 17.9871L18.1277 19.0468ZM18.1272 19.0473L18.1272 19.0473L17.0665 17.9866L17.0665 17.9866L18.1272 19.0473ZM17.2637 19.7405C17.45 19.6592 17.598 19.5469 17.725 19.4356C17.8463 19.3292 17.9814 19.1933 18.1277 19.0468L17.0661 17.9871C16.9059 18.1476 16.8112 18.2419 16.7359 18.3078C16.6663 18.369 16.6509 18.3714 16.6635 18.3659L17.2637 19.7405ZM16.0262 19.8023C16.4324 19.9333 16.8725 19.9113 17.2637 19.7405L16.6635 18.3659C16.6076 18.3903 16.5447 18.3934 16.4867 18.3747L16.0262 19.8023ZM15.0975 19.198C15.2575 19.3291 15.4055 19.4509 15.5369 19.5448C15.6743 19.6429 15.8328 19.7399 16.0262 19.8022L16.4867 18.3747C16.4997 18.3789 16.4842 18.378 16.4088 18.3242C16.3273 18.266 16.2237 18.1816 16.0483 18.0378L15.0975 19.198ZM14.2391 18.5419C14.1969 18.5361 14.2255 18.5249 14.3953 18.6432C14.559 18.7574 14.7705 18.9299 15.0975 19.198L16.0483 18.0378C15.7407 17.7857 15.4762 17.5682 15.253 17.4126C15.0357 17.2612 14.7663 17.1007 14.4452 17.0561L14.2391 18.5419ZM14.0055 18.6386C14.0602 18.5665 14.1495 18.5295 14.2391 18.5419L14.4452 17.0561C13.8178 16.9691 13.1923 17.228 12.8098 17.7329L14.0055 18.6386ZM13.8614 19.7122C13.9035 19.2905 13.9313 19.0183 13.9666 18.8212C14.0032 18.6168 14.0314 18.6044 14.0055 18.6386L12.8098 17.7329C12.614 17.9915 12.5368 18.2959 12.4901 18.5568C12.442 18.825 12.4085 19.1665 12.3689 19.5632L13.8614 19.7122ZM13.63 20.8009C13.7234 20.6195 13.7672 20.4381 13.7952 20.2709C13.822 20.111 13.8408 19.9193 13.8614 19.7122L12.3689 19.5632C12.3462 19.7901 12.3325 19.9238 12.3159 20.0231C12.3004 20.1151 12.29 20.1268 12.2963 20.1144L13.63 20.8009ZM12.7164 21.6278C13.1111 21.4721 13.4358 21.1782 13.63 20.8009L12.2963 20.1144C12.2686 20.1683 12.2222 20.2103 12.1658 20.2325L12.7164 21.6278ZM11.6116 21.75C11.8192 21.75 12.0114 21.7504 12.173 21.7396C12.3421 21.7283 12.5267 21.7027 12.7164 21.6278L12.1658 20.2325C12.1786 20.2275 12.166 20.2368 12.0733 20.2429C11.9731 20.2496 11.839 20.25 11.6116 20.25V21.75ZM10.3535 21.75H11.6116V20.25H10.3535V21.75ZM9.2492 21.628C9.43878 21.7027 9.62333 21.7284 9.79229 21.7396C9.95381 21.7504 10.146 21.75 10.3535 21.75V20.25C10.1261 20.25 9.99214 20.2496 9.89202 20.2429C9.79934 20.2368 9.78677 20.2275 9.79953 20.2326L9.2492 21.628ZM8.33513 20.8006C8.52936 21.1781 8.85423 21.4722 9.24919 21.628L9.79953 20.2326C9.74311 20.2103 9.6967 20.1683 9.66895 20.1144L8.33513 20.8006ZM8.10386 19.7125C8.12452 19.9195 8.14326 20.111 8.17002 20.2709C8.198 20.4379 8.24183 20.6193 8.33513 20.8006L9.66895 20.1144C9.67529 20.1267 9.66482 20.1151 9.64942 20.0231C9.6328 19.9239 9.61907 19.7902 9.59644 19.5635L8.10386 19.7125ZM7.95987 18.6394C7.93401 18.6052 7.9622 18.6176 7.9988 18.8219C8.03407 19.0189 8.06179 19.291 8.10386 19.7125L9.59644 19.5635C9.55686 19.167 9.52333 18.8256 9.47531 18.5575C9.42861 18.2968 9.35147 17.9924 9.15575 17.7339L7.95987 18.6394ZM7.72616 18.5427C7.81583 18.5302 7.90522 18.5672 7.95987 18.6394L9.15575 17.7339C8.77322 17.2287 8.14747 16.9698 7.51981 17.057L7.72616 18.5427ZM6.86813 19.1985C7.19504 18.9306 7.40638 18.7581 7.57009 18.644C7.7398 18.5257 7.7684 18.5368 7.72616 18.5427L7.51981 17.057C7.19887 17.1015 6.92952 17.262 6.71237 17.4134C6.48921 17.5689 6.22476 17.7864 5.91729 18.0384L6.86813 19.1985ZM5.93977 19.8026C6.1331 19.7402 6.29154 19.6433 6.42888 19.5452C6.56019 19.4514 6.70813 19.3297 6.86813 19.1985L5.91729 18.0384C5.74196 18.1821 5.6384 18.2665 5.55698 18.3246C5.48159 18.3785 5.46606 18.3793 5.47911 18.3751L5.93977 19.8026ZM4.70181 19.7409C5.0931 19.9118 5.5334 19.9338 5.93978 19.8026L5.4791 18.3751C5.42105 18.3939 5.35815 18.3907 5.30225 18.3663L4.70181 19.7409ZM3.83818 19.0474C3.98434 19.1938 4.11942 19.3296 4.24075 19.436C4.36764 19.5473 4.51565 19.6596 4.7018 19.7409L5.30225 18.3663C5.31482 18.3718 5.29945 18.3694 5.22979 18.3083C5.15456 18.2423 5.05991 18.1481 4.89976 17.9876L3.83818 19.0474ZM2.94644 18.1541L3.83818 19.0474L4.89976 17.9876L4.00802 17.0943L2.94644 18.1541ZM2.94133 18.1489L2.94134 18.1489L4.01311 17.0995L4.0131 17.0995L2.94133 18.1489ZM2.25095 17.2835C2.332 17.4712 2.4445 17.6204 2.55621 17.7484C2.66299 17.8707 2.79943 18.0068 2.94642 18.1541L4.00801 17.0943C3.84692 16.933 3.7523 16.8376 3.68614 16.7618C3.62491 16.6917 3.62259 16.6763 3.62803 16.6889L2.25095 17.2835ZM2.1899 16.0592C2.06197 16.4613 2.08366 16.8961 2.25095 17.2835L3.62803 16.6889C3.60413 16.6335 3.60104 16.5714 3.61931 16.5139L2.1899 16.0592ZM2.7963 15.1226C2.66435 15.2842 2.54192 15.4335 2.4477 15.5659C2.3492 15.7044 2.25192 15.8643 2.1899 16.0592L3.61931 16.514C3.6151 16.5272 3.61586 16.5115 3.67006 16.4353C3.72854 16.3531 3.81349 16.2485 3.95804 16.0715L2.7963 15.1226ZM3.45359 14.2595C3.45935 14.217 3.47071 14.2457 3.35213 14.4165C3.23781 14.5812 3.06484 14.7938 2.7963 15.1226L3.95804 16.0715C4.21065 15.7622 4.42856 15.4963 4.58428 15.272C4.73576 15.0538 4.89636 14.7831 4.94001 14.4609L3.45359 14.2595ZM3.35716 14.027C3.42885 14.0815 3.46568 14.1703 3.45359 14.2595L4.94001 14.4609C5.02464 13.8363 4.7668 13.2144 4.265 12.8329L3.35716 14.027ZM2.28513 13.8825C2.70651 13.9247 2.97834 13.9525 3.17504 13.9879C3.37885 14.0245 3.39111 14.0528 3.35716 14.027L4.265 12.8329C4.00636 12.6362 3.70185 12.5586 3.44065 12.5116C3.17235 12.4633 2.83093 12.4297 2.43464 12.39L2.28513 13.8825ZM2.35988 13.8862H2.35989V12.3862H2.35988V13.8862ZM1.19926 13.6512C1.38034 13.7444 1.56129 13.7883 1.72817 13.8163C1.8877 13.8431 2.07882 13.8618 2.28512 13.8825L2.43464 12.39C2.20857 12.3673 2.07541 12.3536 1.97653 12.337C1.885 12.3216 1.87342 12.3112 1.88561 12.3175L1.19926 13.6512ZM0.371879 12.7368C0.527589 13.1319 0.821652 13.4569 1.19925 13.6512L1.88561 12.3175C1.83166 12.2897 1.78966 12.2433 1.76741 12.1868L0.371879 12.7368ZM0.25 11.6333C0.25 11.8406 0.249614 12.0327 0.260363 12.1941C0.271607 12.3629 0.297207 12.5474 0.37188 12.7368L1.76741 12.1868C1.77244 12.1996 1.76322 12.187 1.75705 12.0944C1.75039 11.9944 1.75 11.8605 1.75 11.6333H0.25ZM0.25 10.3673V11.6333H1.75V10.3673H0.25ZM0.372176 9.26242C0.297323 9.45209 0.27166 9.63674 0.260388 9.80579C0.249613 9.96739 0.25 10.1597 0.25 10.3673H1.75C1.75 10.1398 1.75039 10.0057 1.75707 9.90558C1.76325 9.81287 1.77249 9.80029 1.76745 9.81306L0.372176 9.26242ZM1.19854 8.34914C0.821518 8.54338 0.527863 8.86792 0.372175 9.26242L1.76745 9.81306C1.78969 9.7567 1.83165 9.71034 1.88551 9.68259L1.19854 8.34914ZM2.2857 8.11745C2.07914 8.13814 1.88778 8.15692 1.72806 8.18375C1.56097 8.21182 1.37981 8.25576 1.19854 8.34914L1.8855 9.68259C1.87331 9.68887 1.8849 9.67842 1.97653 9.66303C2.07553 9.6464 2.20886 9.63266 2.43521 9.60998L2.2857 8.11745ZM3.35902 7.97276C3.39299 7.9469 3.38075 7.97519 3.17671 8.01192C2.97977 8.04737 2.7076 8.07519 2.2857 8.11745L2.43521 9.60998C2.83198 9.57024 3.17383 9.53655 3.44245 9.48819C3.70397 9.44111 4.00884 9.36329 4.26767 9.16623L3.35902 7.97276ZM3.45534 7.74045C3.46735 7.82958 3.43057 7.91829 3.35902 7.97276L4.26767 9.16623C4.76853 8.78489 5.02599 8.16393 4.9419 7.54007L3.45534 7.74045ZM2.79769 6.87679C3.06643 7.20583 3.2395 7.41859 3.35388 7.58338C3.47248 7.75425 3.46107 7.78295 3.45534 7.74045L4.9419 7.54007C4.89841 7.21748 4.73774 6.9465 4.58613 6.72807C4.4303 6.50356 4.21222 6.23742 3.95943 5.92792L2.79769 6.87679ZM2.75452 6.81838L2.75452 6.81838L4.00259 5.98633L4.00259 5.98633L2.75452 6.81838ZM2.19136 5.94019C2.25337 6.13518 2.35063 6.29502 2.44914 6.43354C2.54335 6.566 2.66577 6.71527 2.79768 6.87678L3.95943 5.92792C3.8149 5.75097 3.72999 5.6464 3.67153 5.56419C3.61737 5.48804 3.61661 5.47238 3.62081 5.48559L2.19136 5.94019ZM2.2524 4.71616C2.08518 5.10348 2.0635 5.53816 2.19136 5.94019L3.62081 5.48559C3.60255 5.42815 3.60564 5.36606 3.62953 5.31072L2.2524 4.71616ZM2.94802 3.84541C2.80099 3.99269 2.66452 4.12886 2.55771 4.25119C2.44597 4.37917 2.33345 4.52843 2.2524 4.71616L3.62953 5.31072C3.62409 5.32333 3.62641 5.30786 3.68765 5.23771C3.75383 5.16191 3.84848 5.06655 4.00961 4.90514L2.94802 3.84541ZM3.84009 2.95179L2.94802 3.84541L4.00961 4.90514L4.90167 4.01153L3.84009 2.95179ZM3.84055 2.95133L3.84055 2.95133L4.90121 4.01199L4.90121 4.01199L3.84055 2.95133ZM4.70257 2.259C4.51668 2.3403 4.36888 2.45242 4.24215 2.56358C4.12098 2.66986 3.98607 2.80556 3.84009 2.95179L4.90167 4.01153C5.06162 3.8513 5.15616 3.75714 5.23128 3.69124C5.30085 3.63022 5.3162 3.62781 5.30365 3.6333L4.70257 2.259ZM5.94206 2.19717C5.53521 2.06567 5.0943 2.08767 4.70257 2.259L5.30365 3.6333C5.35962 3.60882 5.4226 3.60568 5.48072 3.62447L5.94206 2.19717ZM6.8692 2.80068C6.70939 2.66971 6.56164 2.54811 6.4305 2.45442C6.29333 2.35642 6.13511 2.25957 5.94206 2.19717L5.48072 3.62447C5.46769 3.62026 5.4832 3.62112 5.5585 3.67492C5.63982 3.73301 5.74325 3.81729 5.91835 3.96081L6.8692 2.80068ZM6.84378 2.78075L6.84378 2.78075L5.94378 3.98075L5.94378 3.98075L6.84378 2.78075ZM7.72615 3.45573C7.76833 3.46162 7.73977 3.47272 7.57027 3.35456C7.40677 3.24057 7.1957 3.06828 6.8692 2.80069L5.91836 3.96081C6.22544 4.2125 6.48956 4.42968 6.71243 4.58505C6.9293 4.73624 7.19829 4.89659 7.51878 4.94133L7.72615 3.45573ZM7.96013 3.35891C7.90546 3.43122 7.81593 3.46826 7.72615 3.45573L7.51878 4.94133C8.14723 5.02905 8.77393 4.76971 9.15662 4.26356L7.96013 3.35891ZM8.10391 2.287C8.06188 2.70799 8.0342 2.97983 7.99899 3.17657C7.96245 3.38071 7.93431 3.39305 7.96013 3.35891L9.15662 4.26356C9.35192 4.00527 9.42891 3.70127 9.47552 3.44085C9.52346 3.17301 9.55695 2.83206 9.59649 2.43599L8.10391 2.287ZM8.1002 2.36149V2.36149H9.6002V2.36149H8.1002ZM8.10962 2.24299L8.10962 2.243L9.59078 2.47998L9.59078 2.47997L8.10962 2.24299ZM8.3348 1.20004C8.24167 1.38123 8.19792 1.56235 8.16999 1.72926C8.14326 1.88892 8.12455 2.08027 8.10391 2.28698L9.59649 2.43598C9.6191 2.20954 9.63281 2.07602 9.6494 1.97689C9.66478 1.885 9.67524 1.8734 9.6689 1.88572L8.3348 1.20004ZM9.24986 0.371775C8.85437 0.527568 8.5291 0.821983 8.33479 1.20005L9.66891 1.88572C9.69666 1.83171 9.74313 1.78965 9.79963 1.7674L9.24986 0.371775ZM10.353 0.25C10.1457 0.25 9.95374 0.249615 9.7924 0.260354C9.62362 0.271588 9.43927 0.297164 9.24987 0.371775L9.79963 1.7674C9.78687 1.77242 9.79944 1.7632 9.89202 1.75704C9.99203 1.75039 10.1259 1.75 10.353 1.75V0.25ZM11.6121 0.25H10.353V1.75H11.6121V0.25ZM12.7157 0.371905C12.5263 0.297215 12.3418 0.271611 12.1729 0.260365C12.0115 0.249614 11.8194 0.25 11.6121 0.25V1.75C11.8393 1.75 11.9732 1.75039 12.0733 1.75705C12.1659 1.76322 12.1785 1.77244 12.1657 1.76742L12.7157 0.371905ZM13.6303 1.19973C13.436 0.821924 13.111 0.527689 12.7157 0.371905L12.1657 1.76741C12.2222 1.78967 12.2686 1.8317 12.2964 1.88568L13.6303 1.19973ZM14.2244 11C14.2244 12.7962 12.7712 14.25 10.9813 14.25V15.75C13.6021 15.75 15.7244 13.6221 15.7244 11H14.2244ZM10.9813 7.75C12.7712 7.75 14.2244 9.20385 14.2244 11H15.7244C15.7244 8.37788 13.6021 6.25 10.9813 6.25V7.75ZM7.73828 11C7.73828 9.20385 9.19148 7.75 10.9813 7.75V6.25C8.36059 6.25 6.23828 8.37788 6.23828 11H7.73828ZM10.9813 14.25C9.19148 14.25 7.73828 12.7962 7.73828 11H6.23828C6.23828 13.6221 8.36059 15.75 10.9813 15.75V14.25Z"
                        fill="#BEBEBE"/></svg>