<svg width="20" height="20" viewBox="0 0 20 20" fill="none" xmlns="http://www.w3.org/2000/svg">
<path fill-rule="evenodd" clip-rule="evenodd" d="M0 10C0 15.5228 4.47715 20 10 20C15.5228 20 20 15.5228 20 10C20 4.47715 15.5228 0 10 0C4.47715 0 0 4.47715 0 10ZM2 10C2 5.58172 5.58172 2 10 2C14.4183 2 18 5.58172 18 10C18 14.4183 14.4183 18 10 18C5.58172 18 2 14.4183 2 10ZM6.5 13C6.5 13.5523 6.94772 14 7.5 14C8.05229 14 8.5 13.5523 8.5 13V7C8.5 6.44772 8.05228 6 7.5 6C6.94771 6 6.5 6.44772 6.5 7L6.5 13ZM12.5 14C11.9477 14 11.5 13.5523 11.5 13V7C11.5 6.44772 11.9477 6 12.5 6C13.0523 6 13.5 6.44772 13.5 7V13C13.5 13.5523 13.0523 14 12.5 14Z" fill="black"/>
</svg>
