<svg width="50" height="50" viewBox="0 0 50 50" fill="none" xmlns="http://www.w3.org/2000/svg">
<rect width="50" height="50" rx="25" fill="white"/>
<path d="M37.9647 11.6836C37.5635 11.3418 37.0793 11.1177 36.5636 11.0353C36.0479 10.9529 35.5201 11.0153 35.0363 11.2157L9.78348 21.658C9.24343 21.8856 8.78372 22.276 8.46538 22.7774C8.14703 23.2788 7.9851 23.8675 8.00108 24.4654C8.01705 25.0633 8.21018 25.6421 8.55483 26.1249C8.89947 26.6077 9.37934 26.9718 9.93073 27.1688L15.0388 28.9883L17.886 38.6315C17.9247 38.7603 17.9808 38.8829 18.0528 38.9958C18.0637 39.0131 18.0791 39.026 18.0907 39.0428C18.1739 39.1616 18.2743 39.2666 18.3886 39.3542C18.4211 39.3796 18.4523 39.4033 18.487 39.4259C18.6208 39.5168 18.7689 39.5832 18.9249 39.6223L18.9416 39.6238L18.951 39.6279C19.0448 39.6474 19.1402 39.6574 19.2359 39.6575C19.2451 39.6575 19.2533 39.653 19.2624 39.6528C19.4067 39.6502 19.5499 39.6248 19.6866 39.5773C19.7185 39.5662 19.7457 39.5477 19.7766 39.5343C19.8786 39.491 19.9752 39.4355 20.0645 39.3689C20.1359 39.3072 20.2074 39.2456 20.279 39.1839L24.0867 34.8782L29.7658 39.3841C30.2658 39.7828 30.8812 39.9995 31.5148 40C32.1788 39.9991 32.8223 39.7645 33.3374 39.3354C33.8525 38.9064 34.208 38.309 34.3441 37.6434L38.9417 14.5278C39.0459 14.0076 39.01 13.4681 38.8379 12.9671C38.6658 12.4661 38.364 12.0225 37.9647 11.6836ZM19.7946 29.4478C19.5992 29.6471 19.4657 29.9011 19.4107 30.1779L18.9746 32.3485L17.8697 28.6061L23.5982 25.5508L19.7946 29.4478ZM31.4929 37.1022L24.7816 31.7775C24.5008 31.5553 24.1486 31.4496 23.7951 31.4814C23.4417 31.5133 23.1129 31.6804 22.8743 31.9494L21.6549 33.328L22.0858 31.1827L32.0667 20.9603C32.3049 20.7166 32.4501 20.3936 32.4758 20.0498C32.5016 19.706 32.4063 19.3641 32.2072 19.086C32.008 18.8079 31.7183 18.6121 31.3903 18.534C31.0624 18.4559 30.718 18.5006 30.4195 18.6602L16.0953 26.2987L10.8472 24.3317L36.1812 13.9513L31.4929 37.1022Z" fill="black"/>
</svg>
