<svg width="20" height="14" viewBox="0 0 20 14" fill="none" xmlns="http://www.w3.org/2000/svg">
<path fill-rule="evenodd" clip-rule="evenodd" d="M5.67575 0.262852C6.08287 0.636044 6.11037 1.26861 5.73718 1.67573L2.98718 4.67573C2.79221 4.88842 2.51487 5.00654 2.22642 4.99973C1.93797 4.99292 1.66652 4.86185 1.4818 4.64019L0.231804 3.14019C-0.12176 2.71591 -0.0644363 2.08535 0.359841 1.73178C0.784118 1.37822 1.41468 1.43554 1.76825 1.85982L2.28589 2.48099L4.26287 0.324281C4.63606 -0.0828378 5.26863 -0.110341 5.67575 0.262852ZM8.00002 3.00001C8.00002 2.44772 8.44774 2.00001 9.00002 2.00001H19C19.5523 2.00001 20 2.44772 20 3.00001C20 3.55229 19.5523 4.00001 19 4.00001H9.00002C8.44774 4.00001 8.00002 3.55229 8.00002 3.00001ZM9.00002 10C8.44774 10 8.00002 10.4477 8.00002 11C8.00002 11.5523 8.44774 12 9.00002 12H19C19.5523 12 20 11.5523 20 11C20 10.4477 19.5523 10 19 10H9.00002ZM5.70713 8.2929C6.09766 8.68342 6.09766 9.31659 5.70713 9.70711L4.41424 11L5.70713 12.2929C6.09766 12.6834 6.09766 13.3166 5.70713 13.7071C5.31661 14.0976 4.68344 14.0976 4.29292 13.7071L3.00003 12.4142L1.70713 13.7071C1.31661 14.0976 0.683443 14.0976 0.292918 13.7071C-0.097606 13.3166 -0.097606 12.6834 0.292918 12.2929L1.58581 11L0.292919 9.70711C-0.0976059 9.31659 -0.0976059 8.68342 0.292919 8.2929C0.683443 7.90237 1.31661 7.90237 1.70713 8.2929L3.00003 9.58579L4.29292 8.2929C4.68344 7.90237 5.31661 7.90237 5.70713 8.2929Z" fill="black"/>
</svg>
