<svg width="18" height="20" viewBox="0 0 18 20" fill="none" xmlns="http://www.w3.org/2000/svg">
<path fill-rule="evenodd" clip-rule="evenodd" d="M3 20L15 20C16.6569 20 18 18.6569 18 17V10V6L18 2.99999C18 1.34314 16.6568 0 15 0H12.5H9H3C1.34315 0 0 1.34314 0 3V17C1.96477e-06 18.6569 1.34315 20 3 20ZM16 17C16 17.5523 15.5523 18 15 18L3 18C2.44772 18 2 17.5523 2 17L2 3C2 2.44772 2.44771 2 3 2L9 2L12.5 2L15 2C15.5523 2 16 2.44771 16 3L16 6V10V17ZM6.00001 4C4.89544 4 4.00001 4.89543 4.00001 6V7C4.00001 8.10457 4.89544 9 6.00001 9H12C13.1046 9 14 8.10457 14 7V6C14 4.89543 13.1046 4 12 4H6.00001ZM6.00001 6H12V7H6.00001V6ZM4.00001 12C4.00001 11.4477 4.44772 11 5.00001 11H13C13.5523 11 14 11.4477 14 12C14 12.5523 13.5523 13 13 13H5.00001C4.44772 13 4.00001 12.5523 4.00001 12ZM5.00001 14C4.44772 14 4.00001 14.4477 4.00001 15C4.00001 15.5523 4.44772 16 5.00001 16H13C13.5523 16 14 15.5523 14 15C14 14.4477 13.5523 14 13 14H5.00001Z" fill="black"/>
</svg>
