<svg width="24" height="24" viewBox="0 0 24 24" fill="none" xmlns="http://www.w3.org/2000/svg">
<path fill-rule="evenodd" clip-rule="evenodd" d="M16.2597 5L16 5C16 3.34315 14.6569 2 13 2H11C9.34314 2 8 3.34315 8 5L7.34328 5L7 5L6.99882 5L4 5C3.44772 5 3 5.44772 3 6C3 6.55229 3.44772 7 4 7L5 7L5 19C5 20.6569 6.34315 22 8 22H16C17.6569 22 19 20.6569 19 19L19 7L20 7C20.5523 7 21 6.55228 21 6C21 5.44771 20.5523 5 20 5L17.0018 5L17 5L16.2597 5ZM17 7H15L14 7L10 7L9 7L7 7L7 9L7 19C7 19.5523 7.44772 20 8 20H16C16.5523 20 17 19.5523 17 19L17 9V7ZM10 5H11H12L13 5H14C14 4.44772 13.5523 4 13 4L11 4C10.4477 4 10 4.44772 10 5ZM10 9C10.5523 9 11 9.44772 11 10V17C11 17.5523 10.5523 18 10 18C9.44772 18 9 17.5523 9 17V10C9 9.44772 9.44772 9 10 9ZM15 10C15 9.44772 14.5523 9 14 9C13.4477 9 13 9.44772 13 10V17C13 17.5523 13.4477 18 14 18C14.5523 18 15 17.5523 15 17V10Z" fill="#7D8592"/>
</svg>
