<svg width="149" height="205" viewBox="0 0 149 205" fill="none" xmlns="http://www.w3.org/2000/svg">
<path opacity="0.2" d="M93.1 157.6H148.6V205H0.1V193C28.3 159.6 48.3 135.5 60.1 120.7C72.1 105.7 80.3 94.2998 84.7 86.4998C89.1 78.6998 91.3 71.7998 91.3 65.7998C91.3 60.3997 89.7 56.0997 86.5 52.8997C83.3 49.4997 79.2 47.7997 74.2 47.7997C71.8 47.7997 69.6 48.0997 67.6 48.6997C65.8 49.0997 64.2 49.8997 62.8 51.0998C61.4 52.2997 60.2 53.6997 59.2 55.2998C58.2 56.6998 57.4 58.4997 56.8 60.6997C56.2 62.6997 55.9 64.8998 55.9 67.2997V71.1998H3.4V67.2997C3.4 47.0998 9.6 30.8998 22 18.6997C34.6 6.49974 51.7 0.399744 73.3 0.399744C94.5 0.399744 111.7 6.29975 124.9 18.0997C138.3 29.8998 145 45.1998 145 63.9997C145 76.7997 141.5 89.5998 134.5 102.4C127.7 115.2 113.9 133.6 93.1 157.6Z" fill="white"/>
</svg>
