<svg width="38" height="38" viewBox="0 0 38 38" fill="none" xmlns="http://www.w3.org/2000/svg">
<path fill-rule="evenodd" clip-rule="evenodd" d="M19 19.0002C16.3766 19.0002 14.25 21.1268 14.25 23.7502V25.5597V30.0835C14.25 30.9579 13.5411 31.6668 12.6666 31.6668C11.7922 31.6668 11.0833 30.9579 11.0833 30.0835V25.5597V23.7502L11.0835 23.694C10.8249 23.731 10.5605 23.7502 10.2916 23.7502C10.1174 23.7502 9.945 23.7421 9.77485 23.7264C9.68557 23.742 9.59372 23.7502 9.49996 23.7502H8.82139C7.44725 23.7502 6.33329 24.8641 6.33329 26.2383V28.5002C6.33329 29.3746 5.62441 30.0835 4.74996 30.0835C3.87551 30.0835 3.16663 29.3746 3.16663 28.5002V26.2383C3.16663 24.2258 4.2179 22.4589 5.80123 21.4567C5.13987 20.544 4.74996 19.4218 4.74996 18.2085C4.74996 15.1479 7.23105 12.6668 10.2916 12.6668C11.1506 12.6668 11.964 12.8623 12.6897 13.2111C12.6744 13.0317 12.6666 12.8502 12.6666 12.6668C12.6666 9.16903 15.5022 6.3335 19 6.3335C22.4978 6.3335 25.3333 9.16903 25.3333 12.6668C25.3333 12.8502 25.3255 13.0317 25.3102 13.2111C26.0359 12.8623 26.8493 12.6668 27.7083 12.6668C30.7689 12.6668 33.25 15.1479 33.25 18.2085C33.25 19.4218 32.86 20.544 32.1987 21.4567C33.782 22.4589 34.8333 24.2258 34.8333 26.2383V28.5002C34.8333 29.3746 34.1244 30.0835 33.25 30.0835C32.3755 30.0835 31.6666 29.3746 31.6666 28.5002V26.2383C31.6666 24.8641 30.5527 23.7502 29.1785 23.7502H28.5C28.4062 23.7502 28.3144 23.742 28.2251 23.7264C28.0549 23.7421 27.8826 23.7502 27.7083 23.7502C27.4394 23.7502 27.1751 23.731 26.9164 23.694L26.9166 23.7502V25.5597V30.0835C26.9166 30.9579 26.2077 31.6668 25.3333 31.6668C24.4588 31.6668 23.75 30.9579 23.75 30.0835V25.5597V23.7502C23.75 21.1268 21.6233 19.0002 19 19.0002ZM19 15.8335C17.2511 15.8335 15.8333 14.4157 15.8333 12.6668C15.8333 10.9179 17.2511 9.50016 19 9.50016C20.7489 9.50016 22.1666 10.9179 22.1666 12.6668C22.1666 14.4157 20.7489 15.8335 19 15.8335ZM10.2916 15.8335C8.97995 15.8335 7.91663 16.8968 7.91663 18.2085C7.91663 19.5202 8.97995 20.5835 10.2916 20.5835C11.6033 20.5835 12.6666 19.5202 12.6666 18.2085C12.6666 16.8968 11.6033 15.8335 10.2916 15.8335ZM27.7083 15.8335C26.3966 15.8335 25.3333 16.8968 25.3333 18.2085C25.3333 19.5202 26.3966 20.5835 27.7083 20.5835C29.02 20.5835 30.0833 19.5202 30.0833 18.2085C30.0833 16.8968 29.02 15.8335 27.7083 15.8335Z" fill="#7D8592"/>
</svg>
