<svg width="20" height="20" viewBox="0 0 20 20" fill="none" xmlns="http://www.w3.org/2000/svg">
<path fill-rule="evenodd" clip-rule="evenodd" d="M17 0H3C1.34315 0 0 1.34315 0 3V17C0 18.6569 1.34315 20 3 20H17C18.6569 20 20 18.6569 20 17V3C20 1.34315 18.6569 0 17 0ZM2 3C2 2.44772 2.44772 2 3 2H17C17.5523 2 18 2.44772 18 3V17C18 17.5523 17.5523 18 17 18H3C2.44772 18 2 17.5523 2 17V3ZM10.1094 6.3359C9.49569 5.92676 8.7066 5.88861 8.05628 6.23665C7.40597 6.58469 7 7.26241 7 8V12C7 12.7376 7.40597 13.4153 8.05628 13.7633C8.7066 14.1114 9.49569 14.0732 10.1094 13.6641L13.1094 11.6641C13.6658 11.2932 14 10.6687 14 10C14 9.33129 13.6658 8.70683 13.1094 8.3359L10.1094 6.3359ZM10.1972 11.2019L9 12V10.4037V9.5963V8L10.1972 8.79815L11 9.33333L12 10L11 10.6667L10.1972 11.2019Z" fill="#7D8592"/>
</svg>
