<svg width="20" height="20" viewBox="0 0 20 20" fill="none" xmlns="http://www.w3.org/2000/svg">
<path fill-rule="evenodd" clip-rule="evenodd" d="M0 1C0 0.447715 0.447715 0 1 0H5C5.55228 0 6 0.447715 6 1C6 1.55228 5.55228 2 5 2H2V5C2 5.55228 1.55228 6 1 6C0.447715 6 0 5.55228 0 5V1ZM10 11H9.85714C8.27919 11 7 12.2792 7 13.8571V15C7 15.5523 6.55228 16 6 16C5.44772 16 5 15.5523 5 15V13.8571C5 12.1725 5.85766 10.6882 7.16016 9.81697C6.44301 9.09403 6 8.09875 6 7C6 4.79086 7.79086 3 10 3C12.2091 3 14 4.79086 14 7C14 8.09875 13.557 9.09403 12.8398 9.81697C14.1423 10.6882 15 12.1725 15 13.8571V15C15 15.5523 14.5523 16 14 16C13.4477 16 13 15.5523 13 15V13.8571C13 12.2792 11.7208 11 10.1429 11H10ZM10 9C8.89543 9 8 8.10457 8 7C8 5.89543 8.89543 5 10 5C11.1046 5 12 5.89543 12 7C12 8.10457 11.1046 9 10 9ZM19 0C19.5523 0 20 0.447715 20 1V5C20 5.55228 19.5523 6 19 6C18.4477 6 18 5.55228 18 5V2H15C14.4477 2 14 1.55228 14 1C14 0.447715 14.4477 0 15 0H19ZM0 19C0 19.5523 0.447715 20 1 20H5C5.55228 20 6 19.5523 6 19C6 18.4477 5.55228 18 5 18H2V15C2 14.4477 1.55228 14 1 14C0.447715 14 0 14.4477 0 15V19ZM19 20C19.5523 20 20 19.5523 20 19V15C20 14.4477 19.5523 14 19 14C18.4477 14 18 14.4477 18 15V18H15C14.4477 18 14 18.4477 14 19C14 19.5523 14.4477 20 15 20H19Z" fill="black"/>
</svg>
