<svg width="13" height="14" viewBox="0 0 13 14" fill="none" xmlns="http://www.w3.org/2000/svg">
<mask id="path-1-outside-1_428_3665" maskUnits="userSpaceOnUse" x="0" y="0" width="13" height="14" fill="black">
<rect fill="white" width="13" height="14"/>
<path d="M8.2963 3.11111L3.13246 8.27495L3.13245 8.27496C2.9378 8.4696 2.84048 8.56693 2.7735 8.68522C2.70653 8.80351 2.67315 8.93704 2.60638 9.20409L2.20211 10.8212C2.11186 11.1822 2.06673 11.3627 2.16682 11.4628C2.2669 11.5629 2.44742 11.5178 2.80844 11.4275L2.80845 11.4275L4.42554 11.0232C4.69259 10.9565 4.82612 10.9231 4.94441 10.8561C5.0627 10.7892 5.16003 10.6918 5.35468 10.4972L10.5185 5.33333C10.8954 4.95642 11.0839 4.76796 11.1593 4.55256C11.2341 4.3387 11.2341 4.10575 11.1593 3.89188C11.0839 3.67648 10.8954 3.48803 10.5185 3.11111C10.1416 2.7342 9.95315 2.54574 9.73775 2.47035C9.52388 2.3955 9.29094 2.3955 9.07707 2.47035C8.86167 2.54574 8.67321 2.7342 8.2963 3.11111Z"/>
</mask>
<path d="M3.13246 8.27495L2.0718 7.21429H2.0718L3.13246 8.27495ZM8.2963 3.11111L9.35696 4.17177V4.17177L8.2963 3.11111ZM5.35468 10.4972L4.29402 9.43651L4.29402 9.43652L5.35468 10.4972ZM2.60638 9.20409L1.15117 8.84029H1.15117L2.60638 9.20409ZM2.20211 10.8212L0.746899 10.4574L0.746899 10.4574L2.20211 10.8212ZM2.80845 11.4275L2.44465 9.9723L2.3793 9.98864L2.31567 10.0108L2.80845 11.4275ZM4.42554 11.0232L4.06174 9.56803L4.06173 9.56803L4.42554 11.0232ZM2.16682 11.4628L3.22748 10.4022L3.22747 10.4022L2.16682 11.4628ZM2.80844 11.4275L3.17224 12.8827L3.2376 12.8664L3.30122 12.8443L2.80844 11.4275ZM4.94441 10.8561L4.20537 9.55082L4.20536 9.55083L4.94441 10.8561ZM10.5185 3.11111L9.45786 4.17177L9.45786 4.17177L10.5185 3.11111ZM11.1593 3.89188L9.74348 4.38739L9.74349 4.38739L11.1593 3.89188ZM11.1593 4.55256L9.74349 4.05705L9.74348 4.05706L11.1593 4.55256ZM9.07707 2.47035L9.57258 3.88615L9.57258 3.88614L9.07707 2.47035ZM9.73775 2.47035L9.24224 3.88614L9.24224 3.88615L9.73775 2.47035ZM3.13245 8.27496L2.07179 7.21429L2.07179 7.2143L3.13245 8.27496ZM2.7735 8.68522L4.0788 9.42427L4.07881 9.42426L2.7735 8.68522ZM4.19312 9.33561L9.35696 4.17177L7.23564 2.05045L2.0718 7.21429L4.19312 9.33561ZM9.45786 4.27267L4.29402 9.43651L6.41534 11.5578L11.5792 6.39399L9.45786 4.27267ZM1.15117 8.84029L0.746899 10.4574L3.65733 11.185L4.0616 9.5679L1.15117 8.84029ZM3.17226 12.8827L4.78934 12.4785L4.06173 9.56803L2.44465 9.9723L3.17226 12.8827ZM0.746899 10.4574C0.713999 10.589 0.643699 10.8537 0.62021 11.0938C0.594907 11.3525 0.578011 11.9953 1.10616 12.5235L3.22747 10.4022C3.42048 10.5952 3.53082 10.8245 3.57919 11.0346C3.62109 11.2167 3.60925 11.3522 3.60596 11.3859C3.60227 11.4236 3.59821 11.4325 3.60886 11.3844C3.61898 11.3388 3.6333 11.2811 3.65733 11.185L0.746899 10.4574ZM2.31567 10.0108L2.31566 10.0108L3.30122 12.8443L3.30123 12.8443L2.31567 10.0108ZM2.44465 9.9723C2.34853 9.99633 2.2908 10.0106 2.24519 10.0208C2.19714 10.0314 2.20601 10.0274 2.24374 10.0237C2.27744 10.0204 2.41297 10.0085 2.59501 10.0504C2.80513 10.0988 3.03447 10.2092 3.22748 10.4022L1.10615 12.5235C1.63429 13.0516 2.27716 13.0347 2.53581 13.0094C2.77593 12.9859 3.04065 12.9156 3.17224 12.8827L2.44465 9.9723ZM4.29402 9.43652C4.24376 9.48678 4.20723 9.52328 4.17569 9.55415C4.14443 9.58477 4.12734 9.60071 4.11814 9.60898C4.1097 9.61657 4.11542 9.61087 4.13148 9.59883C4.14921 9.58554 4.17438 9.56837 4.20537 9.55082L5.68346 12.1614C6.01989 11.9709 6.277 11.6962 6.41534 11.5578L4.29402 9.43652ZM4.78933 12.4785C4.97914 12.431 5.34704 12.3519 5.68347 12.1614L4.20536 9.55083C4.23634 9.53328 4.26402 9.52054 4.28454 9.51217C4.30312 9.50459 4.31095 9.50262 4.30011 9.50595C4.28828 9.50958 4.26582 9.51604 4.22349 9.5271C4.18079 9.53825 4.13069 9.55079 4.06174 9.56803L4.78933 12.4785ZM9.45786 4.17177C9.5544 4.26831 9.62819 4.34215 9.6906 4.40647C9.75303 4.4708 9.78974 4.51096 9.81219 4.5372C9.85845 4.59128 9.7929 4.52857 9.74348 4.38739L12.5751 3.39638C12.4503 3.0398 12.2528 2.77516 12.0918 2.58693C11.9413 2.41111 11.751 2.22227 11.5792 2.05045L9.45786 4.17177ZM11.5792 6.39399C11.751 6.22218 11.9413 6.03333 12.0918 5.85751C12.2528 5.66929 12.4503 5.40465 12.5751 5.04806L9.74348 4.05706C9.7929 3.91587 9.85845 3.85316 9.81219 3.90724C9.78974 3.93349 9.75303 3.97365 9.6906 4.03798C9.62819 4.10229 9.5544 4.17613 9.45786 4.27267L11.5792 6.39399ZM9.74349 4.38739C9.70606 4.28046 9.70606 4.16399 9.74349 4.05705L12.5751 5.04807C12.7622 4.5134 12.7622 3.93104 12.5751 3.39638L9.74349 4.38739ZM9.35696 4.17177C9.4535 4.07523 9.52734 4.00144 9.59165 3.93903C9.65598 3.8766 9.69615 3.83989 9.72239 3.81744C9.77647 3.77118 9.71376 3.83673 9.57258 3.88615L8.58156 1.05456C8.22498 1.17936 7.96034 1.37683 7.77212 1.53787C7.5963 1.68829 7.40745 1.87863 7.23564 2.05045L9.35696 4.17177ZM11.5792 2.05045C11.4074 1.87863 11.2185 1.68829 11.0427 1.53787C10.8545 1.37683 10.5898 1.17936 10.2333 1.05456L9.24224 3.88615C9.10106 3.83673 9.03835 3.77118 9.09243 3.81744C9.11867 3.83989 9.15883 3.8766 9.22316 3.93903C9.28748 4.00144 9.36132 4.07523 9.45786 4.17177L11.5792 2.05045ZM9.57258 3.88614C9.46564 3.92357 9.34917 3.92357 9.24224 3.88614L10.2333 1.05456C9.69859 0.867432 9.11623 0.867432 8.58156 1.05456L9.57258 3.88614ZM2.0718 7.21429L2.07179 7.21429L4.19311 9.33562L4.19312 9.33561L2.0718 7.21429ZM2.07179 7.2143C1.93345 7.35263 1.65869 7.60975 1.4682 7.94617L4.07881 9.42426C4.06126 9.45525 4.04409 9.48042 4.0308 9.49815C4.01876 9.51421 4.01306 9.51993 4.02065 9.51149C4.02892 9.50229 4.04486 9.4852 4.07547 9.45394C4.10635 9.4224 4.14285 9.38588 4.19311 9.33561L2.07179 7.2143ZM4.0616 9.5679C4.07884 9.49894 4.09138 9.44884 4.10253 9.40615C4.11359 9.36381 4.12005 9.34135 4.12368 9.32952C4.12701 9.31868 4.12504 9.32651 4.11746 9.34508C4.10909 9.36561 4.09635 9.39328 4.0788 9.42427L1.46821 7.94617C1.27772 8.28259 1.19862 8.65049 1.15117 8.84029L4.0616 9.5679Z" fill="#6A12CC" mask="url(#path-1-outside-1_428_3665)"/>
</svg>
