<svg width="476" height="296" viewBox="0 0 476 296" fill="none" xmlns="http://www.w3.org/2000/svg">
<path d="M178.959 242.323C177.106 242.23 175.365 241.408 174.117 240.035C172.868 238.663 172.214 236.852 172.297 234.998C172.214 233.145 172.868 231.334 174.117 229.961C175.365 228.589 177.106 227.766 178.959 227.674H102.91V242.323H178.959Z" fill="#DDF1FA"/>
<path d="M109.375 235.001C109.292 233.145 109.949 231.331 111.201 229.958C112.453 228.585 114.198 227.764 116.054 227.676H185.951V222.578H9.9079C7.75441 222.684 5.72992 223.636 4.27531 225.228C2.8207 226.819 2.05378 228.921 2.14155 231.075V238.179C2.05378 240.333 2.8207 242.435 4.27531 244.026C5.72992 245.618 7.75441 246.57 9.9079 246.676H185.951V242.257H116.054C114.21 242.169 112.475 241.358 111.225 240C109.975 238.642 109.311 236.846 109.375 235.001Z" fill="#FFD200"/>
<path d="M25.4664 246.748C23.3129 246.642 21.2884 245.69 19.8338 244.099C18.3792 242.507 17.6123 240.405 17.7001 238.251V231.147C17.6123 228.993 18.3792 226.891 19.8338 225.3C21.2884 223.708 23.3129 222.756 25.4664 222.65H32.1451C29.9932 222.761 27.9714 223.714 26.5177 225.305C25.064 226.895 24.2955 228.994 24.3788 231.147V238.251C24.2955 240.404 25.064 242.503 26.5177 244.094C27.9714 245.684 29.9932 246.638 32.1451 246.748H25.4664Z" fill="#FFCD52"/>
<path d="M89.6182 246.748C87.4662 246.638 85.4444 245.684 83.9907 244.094C82.537 242.503 81.7685 240.404 81.8518 238.251V231.147C81.7685 228.994 82.537 226.895 83.9907 225.305C85.4444 223.714 87.4662 222.761 89.6182 222.65H96.3139C94.1604 222.756 92.1359 223.708 90.6813 225.3C89.2267 226.891 88.4598 228.993 88.5475 231.147V238.251C88.4598 240.405 89.2267 242.507 90.6813 244.099C92.1359 245.69 94.1604 246.642 96.3139 246.748H89.6182Z" fill="#FFCD52"/>
<path d="M149.707 234.053H119.084V235.99H149.707V234.053Z" fill="#008EF8"/>
<path d="M140.097 230.535H127.012V232.473H140.097V230.535Z" fill="#008EF8"/>
<path d="M159.927 231.041H150.41V232.978H159.927V231.041Z" fill="#008EF8"/>
<path d="M164.609 234.887H156.043V236.824H164.609V234.887Z" fill="#008EF8"/>
<path d="M172.893 231.041H169.307V232.978H172.893V231.041Z" fill="#008EF8"/>
<path d="M159.061 218.067C156.733 218.067 154.829 214.787 154.829 210.742C154.829 206.698 156.733 203.418 159.061 203.418H110.695V218.067H159.061Z" fill="#DDF1FA"/>
<path d="M114.798 210.745C114.798 206.7 116.701 203.421 119.047 203.421H163.537V198.322H51.5293C48.8102 198.322 46.584 202.146 46.584 206.819V213.991C46.584 218.698 48.8102 222.488 51.5293 222.488H163.537V218.069H119.064C116.701 218.069 114.798 214.79 114.798 210.745Z" fill="url(#paint0_linear_1122_67)"/>
<path d="M140.452 209.775H120.977V211.713H140.452V209.775Z" fill="#008EF8"/>
<path d="M149.936 210.627H144.48V212.564H149.936V210.627Z" fill="#008EF8"/>
<path d="M200.063 270.397C199.576 267.843 199.343 265.247 199.366 262.647C199.296 259.353 199.708 256.067 200.59 252.893H124.609V270.397H200.063Z" fill="#DDF1FA"/>
<path d="M127.083 270.4C126.596 267.846 126.363 265.251 126.386 262.651C126.32 259.358 126.726 256.073 127.593 252.896H207.958V246.744H4.21517C2.7084 252.124 1.99281 257.694 2.0909 263.28C2.05339 267.709 2.45186 272.132 3.28052 276.484H207.907V270.332L127.083 270.4Z" fill="#6A12CC"/>
<path d="M84.761 276.548C83.9563 272.171 83.5864 267.725 83.6563 263.275C83.5437 257.67 84.242 252.077 85.7296 246.672H104.593C103.105 252.077 102.407 257.67 102.52 263.275C102.482 267.705 102.881 272.128 103.709 276.48L84.761 276.548Z" fill="#FF9A78"/>
<path d="M141.014 260.67H130.971V262.607H141.014V260.67Z" fill="#008EF8"/>
<path d="M149.367 265.635H139.324V267.572H149.367V265.635Z" fill="#008EF8"/>
<path d="M172.072 265.635H162.029V267.572H172.072V265.635Z" fill="#008EF8"/>
<path d="M186.181 261.332H170.818V263.269H186.181V261.332Z" fill="#008EF8"/>
<path d="M199.466 265.635H184.104V267.572H199.466V265.635Z" fill="#008EF8"/>
<path d="M174.544 255.98H170.109V257.918H174.544V255.98Z" fill="#008EF8"/>
<path d="M182.723 255.98H178.287V257.918H182.723V255.98Z" fill="#008EF8"/>
<path d="M0 295.354H475.412V276.575H0V295.354Z" fill="#DDF1FA"/>
<path d="M185.632 217.542H394.457C397.456 217.587 400.431 217.002 403.19 215.824C405.949 214.645 408.429 212.9 410.47 210.702C412.512 208.504 414.068 205.901 415.039 203.063C416.01 200.225 416.374 197.214 416.107 194.226L405.316 43.3177C404.778 37.025 401.923 31.1561 397.304 26.8484C392.685 22.5407 386.632 20.1009 380.317 20.0017H171.544C168.549 19.9637 165.579 20.5545 162.826 21.736C160.074 22.9175 157.6 24.6634 155.564 26.8608C153.528 29.0583 151.976 31.6584 151.008 34.4931C150.04 37.3279 149.678 40.3342 149.944 43.3177L160.736 194.226C161.272 200.502 164.112 206.356 168.709 210.662C173.307 214.967 179.335 217.418 185.632 217.542Z" fill="#0150D6"/>
<path d="M152.925 20.2526H171.618C168.624 20.2059 165.652 20.7879 162.897 21.9611C160.141 23.1343 157.662 24.8725 155.62 27.0634C153.578 29.2544 152.019 31.8494 151.042 34.6807C150.065 37.512 149.694 40.5167 149.951 43.5006L160.742 194.409C161.327 200.7 164.228 206.549 168.881 210.823C173.535 215.096 179.61 217.489 185.927 217.538L167.115 217.742C160.8 217.638 154.749 215.194 150.133 210.883C145.518 206.572 142.667 200.702 142.133 194.409L131.325 43.5006C131.069 40.5225 131.439 37.5236 132.411 34.697C133.384 31.8705 134.937 29.2788 136.972 27.0889C139.006 24.899 141.477 23.1594 144.225 21.982C146.972 20.8046 149.936 20.2155 152.925 20.2526Z" fill="#062C96"/>
<path d="M241.151 217.541L246.08 266.637H237.243L232.314 217.541H241.151Z" fill="#062C96"/>
<path d="M233.458 276.337H323.816C325.552 276.294 327.216 275.637 328.514 274.482C329.811 273.328 330.658 271.751 330.902 270.032V269.709C331.024 268.918 330.971 268.11 330.747 267.342C330.523 266.573 330.133 265.864 329.605 265.262C329.076 264.661 328.423 264.183 327.69 263.862C326.957 263.541 326.162 263.385 325.362 263.404H235.004C233.268 263.447 231.603 264.104 230.306 265.258C229.008 266.413 228.162 267.99 227.917 269.709V270.032C227.795 270.823 227.848 271.631 228.073 272.399C228.297 273.167 228.687 273.877 229.215 274.478C229.743 275.079 230.397 275.557 231.13 275.878C231.863 276.199 232.658 276.356 233.458 276.337Z" fill="#062C96"/>
<path d="M241.16 217.541H277.816L281.215 252.124C281.495 255.268 282.965 258.187 285.324 260.284C287.683 262.381 290.754 263.499 293.91 263.408H245.68L241.16 217.541Z" fill="#045AEB"/>
<path d="M186.475 195.087H390.456L379.545 42.666H175.547L186.475 195.087Z" fill="white"/>
<path d="M434.95 242.972H434.492V240.457H394.402V256.347C394.402 258.979 394.921 261.586 395.929 264.018C396.937 266.45 398.414 268.66 400.277 270.52C402.139 272.381 404.35 273.857 406.783 274.863C409.216 275.868 411.823 276.385 414.455 276.383C418.008 276.386 421.497 275.443 424.565 273.651C427.632 271.859 430.167 269.283 431.908 266.186H434.95C438.023 266.182 440.968 264.959 443.141 262.787C445.313 260.614 446.536 257.669 446.54 254.596C446.543 253.072 446.245 251.562 445.663 250.153C445.082 248.744 444.229 247.463 443.153 246.384C442.077 245.304 440.798 244.448 439.391 243.862C437.984 243.277 436.475 242.974 434.95 242.972ZM434.95 263.365H433.251C434.077 261.135 434.503 258.776 434.509 256.398V245.895H434.967C437.284 245.895 439.506 246.815 441.144 248.454C442.782 250.092 443.702 252.314 443.702 254.63C443.671 256.931 442.735 259.126 441.097 260.742C439.459 262.358 437.251 263.264 434.95 263.263V263.365Z" fill="#F46534"/>
<path d="M418.604 231.097C418.604 231.097 411.806 231.505 415.205 222.6C419.453 211.723 464.862 198.468 461.548 178.143C458.234 157.818 427.967 171.515 433.168 156.39C438.368 141.266 445.845 131.324 438.266 125.172C430.686 119.02 394.778 129.302 396.46 158.515C397.633 179.095 421.849 177.667 421.577 188.068C421.306 198.468 396.902 209.82 401.524 220.696C406.147 231.573 418.604 231.097 418.604 231.097Z" fill="#DDF1FA"/>
<path d="M460.464 136.049C460.464 138.045 459.671 139.96 458.259 141.372C456.847 142.784 454.932 143.577 452.935 143.577C451.947 143.577 450.969 143.382 450.057 143.004C449.144 142.625 448.316 142.07 447.618 141.371C446.92 140.672 446.367 139.842 445.991 138.928C445.614 138.015 445.422 137.036 445.424 136.049C445.424 134.056 446.215 132.146 447.624 130.737C449.033 129.329 450.943 128.537 452.935 128.537C453.923 128.535 454.902 128.728 455.815 129.104C456.728 129.481 457.558 130.033 458.258 130.731C458.957 131.429 459.512 132.258 459.89 133.17C460.269 134.083 460.464 135.061 460.464 136.049Z" fill="#DDF1FA"/>
<path d="M382.753 217.773H372.658V261.381H382.753V217.773Z" fill="#008EF8"/>
<path d="M382.736 215.033H372.658L374.154 202.916H381.223L382.736 215.033Z" fill="#0234C1"/>
<path d="M382.782 215.029H372.602C371.382 215.029 370.393 216.018 370.393 217.239V218.139C370.393 219.359 371.382 220.349 372.602 220.349H382.782C384.002 220.349 384.991 219.359 384.991 218.139V217.239C384.991 216.018 384.002 215.029 382.782 215.029Z" fill="#0234C1"/>
<path d="M360.977 217.942L352.062 220.391L362.712 259.163L371.628 256.714L360.977 217.942Z" fill="#FFCD52"/>
<path d="M356.918 213.198L353.876 209.629L353.094 214.234L355.015 213.758L356.918 213.198Z" fill="#6D345B"/>
<path d="M352.041 220.39L360.946 217.943L356.918 213.201L355.015 213.762L353.095 214.238L352.041 220.39Z" fill="#C9B095"/>
<path d="M389.749 276.391H356.645L347.689 227.635H398.688L389.749 276.391Z" fill="url(#paint1_linear_1122_67)"/>
<g filter="url(#filter0_d_1122_67)">
<path d="M283.419 159.02C312.032 159.02 335.227 135.825 335.227 107.212C335.227 78.5994 312.032 55.4043 283.419 55.4043C254.806 55.4043 231.611 78.5994 231.611 107.212C231.611 135.825 254.806 159.02 283.419 159.02Z" fill="url(#paint2_linear_1122_67)"/>
<path d="M283.419 159.02C312.032 159.02 335.227 135.825 335.227 107.212C335.227 78.5994 312.032 55.4043 283.419 55.4043C254.806 55.4043 231.611 78.5994 231.611 107.212C231.611 135.825 254.806 159.02 283.419 159.02Z" stroke="#FFD200" stroke-width="5"/>
</g>
<path d="M260.391 107.213L277.66 124.482L306.442 89.9434" stroke="white" stroke-width="5"/>
<path d="M273.668 170H275.885V184H273.431V174.2L268.674 180.84H267.211L262.454 174.18V184H260V170H262.217L267.942 178.02L273.668 170ZM280.452 184H277.847L284.218 170H286.909L293.259 184H290.676L289.341 180.98H281.786L280.452 184ZM285.273 173L282.626 178.98H288.48L285.833 173C285.718 172.707 285.625 172.447 285.553 172.22C285.481 172.447 285.388 172.707 285.273 173ZM291.935 170H304.354V172.1H299.382V184H296.929V172.1H291.935V170ZM306.496 170H316.871V172.08H308.95V175.9H316.225V177.98H308.95V181.92H317V184H306.496V170Z" fill="url(#paint3_linear_1122_67)"/>
<defs>
<filter id="filter0_d_1122_67" x="171.111" y="0.904297" width="224.615" height="224.615" filterUnits="userSpaceOnUse" color-interpolation-filters="sRGB">
<feFlood flood-opacity="0" result="BackgroundImageFix"/>
<feColorMatrix in="SourceAlpha" type="matrix" values="0 0 0 0 0 0 0 0 0 0 0 0 0 0 0 0 0 0 127 0" result="hardAlpha"/>
<feOffset dy="6"/>
<feGaussianBlur stdDeviation="29"/>
<feColorMatrix type="matrix" values="0 0 0 0 0.366667 0 0 0 0 0.366667 0 0 0 0 0.366667 0 0 0 0.15 0"/>
<feBlend mode="normal" in2="BackgroundImageFix" result="effect1_dropShadow_1122_67"/>
<feBlend mode="normal" in="SourceGraphic" in2="effect1_dropShadow_1122_67" result="shape"/>
</filter>
<linearGradient id="paint0_linear_1122_67" x1="46.584" y1="210.405" x2="163.537" y2="210.405" gradientUnits="userSpaceOnUse">
<stop stop-color="#6A12CC"/>
<stop offset="0.541667" stop-color="#4313CD"/>
<stop offset="1" stop-color="#0048C2"/>
</linearGradient>
<linearGradient id="paint1_linear_1122_67" x1="347.689" y1="252.013" x2="398.688" y2="252.013" gradientUnits="userSpaceOnUse">
<stop stop-color="#6A12CC"/>
<stop offset="0.541667" stop-color="#4313CD"/>
<stop offset="1" stop-color="#0048C2"/>
</linearGradient>
<linearGradient id="paint2_linear_1122_67" x1="231.611" y1="107.212" x2="335.226" y2="107.212" gradientUnits="userSpaceOnUse">
<stop stop-color="#6A12CC"/>
<stop offset="0.541667" stop-color="#4313CD"/>
<stop offset="1" stop-color="#0048C2"/>
</linearGradient>
<linearGradient id="paint3_linear_1122_67" x1="195.165" y1="177.65" x2="381.017" y2="177.65" gradientUnits="userSpaceOnUse">
<stop stop-color="#6A12CC"/>
<stop offset="0.541667" stop-color="#4313CD"/>
<stop offset="1" stop-color="#0048C2"/>
</linearGradient>
</defs>
</svg>
